<?plantuml 1.2026.2?><svg xmlns="http://www.w3.org/2000/svg" xmlns:xlink="http://www.w3.org/1999/xlink" contentStyleType="text/css" data-diagram-type="SEQUENCE" height="772px" preserveAspectRatio="none" style="width:1134px;height:772px;background:#FFFFFF;" version="1.1" viewBox="0 0 1134 772" width="1134px" zoomAndPan="magnify"><defs/><g><g><title>.CardCollector</title><rect fill="#FFFFFF" height="677.6797" style="stroke:#181818;stroke-width:1;" width="10" x="254.3774" y="69.9609"/></g><g><title>.CommandContext</title><rect fill="#FFFFFF" height="48.9609" style="stroke:#181818;stroke-width:1;" width="10" x="532.6372" y="241.625"/></g><g><title>.CommandContext</title><rect fill="#FFFFFF" height="30.3516" style="stroke:#181818;stroke-width:1;" width="10" x="532.6372" y="351.2891"/></g><g><title>.CommandContext</title><rect fill="#FFFFFF" height="14" style="stroke:#181818;stroke-width:1;" width="10" x="532.6372" y="676.2891"/></g><g><title>.Parser</title><rect fill="#FFFFFF" height="103.3125" style="stroke:#181818;stroke-width:1;" width="10" x="659.9956" y="100.3125"/></g><g><title>.AddCommand</title><rect fill="#FFFFFF" height="48.9609" style="stroke:#181818;stroke-width:1;" width="10" x="775.6851" y="124.3125"/></g><g><title>.AddCommand</title><rect fill="#FFFFFF" height="325" style="stroke:#181818;stroke-width:1;" width="10" x="775.6851" y="320.9375"/></g><g><title>.CardsList</title><rect fill="#FFFFFF" height="14" style="stroke:#181818;stroke-width:1;" width="10" x="991.103" y="490.0469"/></g><g><title>.CardsList</title><rect fill="#FFFFFF" height="14" style="stroke:#181818;stroke-width:1;" width="10" x="991.103" y="550.2344"/></g><g><title>.Ui</title><rect fill="#FFFFFF" height="14" style="stroke:#181818;stroke-width:1;" width="10" x="1091.6133" y="601.5859"/></g><rect fill="#FFFFFF" height="122.8906" style="stroke:#000000;stroke-width:1.5;" width="347.6177" x="706.9956" y="449.3438"/><rect fill="#FFFFFF" height="60.1875" style="stroke:none;stroke-width:1;" width="347.6177" x="706.9956" y="512.0469"/><g class="participant-lifeline" data-entity-uid="part1" data-qualified-name="CardCollector" id="part1-lifeline"><g><title>.CardCollector</title><rect fill="#000000" fill-opacity="0.00000" height="728.0313" width="8" x="255.3774" y="37.6094"/><line style="stroke:#181818;stroke-width:0.5;stroke-dasharray:5,5;" x1="258.6396" x2="258.6396" y1="37.6094" y2="765.6406"/></g></g><g class="participant-lifeline" data-entity-uid="part2" data-qualified-name="CommandContext" id="part2-lifeline"><g><title>.CommandContext</title><rect fill="#000000" fill-opacity="0.00000" height="508.7109" width="8" x="533.6372" y="256.9297"/><line style="stroke:#181818;stroke-width:0.5;stroke-dasharray:5,5;" x1="537.2788" x2="537.2788" y1="256.9297" y2="765.6406"/></g></g><g class="participant-lifeline" data-entity-uid="part3" data-qualified-name="Parser" id="part3-lifeline"><g><title>.Parser</title><rect fill="#000000" fill-opacity="0.00000" height="728.0313" width="8" x="660.9956" y="37.6094"/><line style="stroke:#181818;stroke-width:0.5;stroke-dasharray:5,5;" x1="664.9956" x2="664.9956" y1="37.6094" y2="765.6406"/></g></g><g class="participant-lifeline" data-entity-uid="part4" data-qualified-name="AddCommand" id="part4-lifeline"><g><title>.AddCommand</title><rect fill="#000000" fill-opacity="0.00000" height="626.0234" width="8" x="776.6851" y="139.6172"/><line style="stroke:#181818;stroke-width:0.5;stroke-dasharray:5,5;" x1="779.9956" x2="779.9956" y1="139.6172" y2="765.6406"/></g></g><g class="participant-lifeline" data-entity-uid="part5" data-qualified-name="CardsList" id="part5-lifeline"><g><title>.CardsList</title><rect fill="#000000" fill-opacity="0.00000" height="728.0313" width="8" x="992.103" y="37.6094"/><line style="stroke:#181818;stroke-width:0.5;stroke-dasharray:5,5;" x1="995.5928" x2="995.5928" y1="37.6094" y2="765.6406"/></g></g><g class="participant-lifeline" data-entity-uid="part6" data-qualified-name="Ui" id="part6-lifeline"><g><title>.Ui</title><rect fill="#000000" fill-opacity="0.00000" height="728.0313" width="8" x="1092.6133" y="37.6094"/><line style="stroke:#181818;stroke-width:0.5;stroke-dasharray:5,5;" x1="1096.6133" x2="1096.6133" y1="37.6094" y2="765.6406"/></g></g><g class="participant participant-head" data-entity-uid="part1" data-qualified-name="CardCollector" id="part1-head"><rect fill="#E2E2F0" height="31.6094" rx="2.5" ry="2.5" style="stroke:#181818;stroke-width:0.5;" width="103.4756" x="207.6396" y="5"/><text fill="#000000" font-family="sans-serif" font-size="14" lengthAdjust="spacing" textLength="89.4756" x="214.6396" y="26.5332">:CardCollector</text></g><g class="participant participant-head" data-entity-uid="part3" data-qualified-name="Parser" id="part3-head"><rect fill="#4536FF" height="31.6094" rx="2.5" ry="2.5" style="stroke:#181818;stroke-width:0.5;" width="64" x="632.9956" y="5"/><text fill="#FFFFFF" font-family="sans-serif" font-size="14" lengthAdjust="spacing" textLength="45.124" x="642.4336" y="26.5332">:Parser</text></g><g class="participant participant-head" data-entity-uid="part5" data-qualified-name="CardsList" id="part5-head"><rect fill="#009BA3" height="31.6094" rx="2.5" ry="2.5" style="stroke:#181818;stroke-width:0.5;" width="77.0205" x="957.5928" y="5"/><text fill="#FFFFFF" font-family="sans-serif" font-size="14" lengthAdjust="spacing" textLength="63.0205" x="964.5928" y="26.5332">:CardsList</text></g><g class="participant participant-head" data-entity-uid="part6" data-qualified-name="Ui" id="part6-head"><rect fill="#D16C00" height="31.6094" rx="2.5" ry="2.5" style="stroke:#181818;stroke-width:0.5;" width="64" x="1064.6133" y="5"/><text fill="#FFFFFF" font-family="sans-serif" font-size="14" lengthAdjust="spacing" textLength="17.1104" x="1088.0581" y="26.5332">:Ui</text></g><g><title>.CardCollector</title><rect fill="#FFFFFF" height="677.6797" style="stroke:#181818;stroke-width:1;" width="10" x="254.3774" y="69.9609"/></g><g><title>.CommandContext</title><rect fill="#FFFFFF" height="48.9609" style="stroke:#181818;stroke-width:1;" width="10" x="532.6372" y="241.625"/></g><g><title>.CommandContext</title><rect fill="#FFFFFF" height="30.3516" style="stroke:#181818;stroke-width:1;" width="10" x="532.6372" y="351.2891"/></g><g><title>.CommandContext</title><rect fill="#FFFFFF" height="14" style="stroke:#181818;stroke-width:1;" width="10" x="532.6372" y="676.2891"/></g><g><title>.Parser</title><rect fill="#FFFFFF" height="103.3125" style="stroke:#181818;stroke-width:1;" width="10" x="659.9956" y="100.3125"/></g><g><title>.AddCommand</title><rect fill="#FFFFFF" height="48.9609" style="stroke:#181818;stroke-width:1;" width="10" x="775.6851" y="124.3125"/></g><g><title>.AddCommand</title><rect fill="#FFFFFF" height="325" style="stroke:#181818;stroke-width:1;" width="10" x="775.6851" y="320.9375"/></g><g><title>.CardsList</title><rect fill="#FFFFFF" height="14" style="stroke:#181818;stroke-width:1;" width="10" x="991.103" y="490.0469"/></g><g><title>.CardsList</title><rect fill="#FFFFFF" height="14" style="stroke:#181818;stroke-width:1;" width="10" x="991.103" y="550.2344"/></g><g><title>.Ui</title><rect fill="#FFFFFF" height="14" style="stroke:#181818;stroke-width:1;" width="10" x="1091.6133" y="601.5859"/></g><g class="message" data-entity-1="part1" data-entity-2="part1" id="msg1"><polygon fill="#181818" points="242.3774,65.9609,252.3774,69.9609,242.3774,73.9609,246.3774,69.9609" style="stroke:#181818;stroke-width:1;"/><line style="stroke:#181818;stroke-width:1;" x1="0" x2="248.3774" y1="69.9609" y2="69.9609"/><text fill="#000000" font-family="sans-serif" font-size="13" lengthAdjust="spacing" textLength="235.3774" x="9.5" y="65.1045">input "add /n NAME /q QTY /p PRICE ..."</text></g><g class="message" data-entity-1="part1" data-entity-2="part3" id="msg2"><polygon fill="#181818" points="647.9956,96.3125,657.9956,100.3125,647.9956,104.3125,651.9956,100.3125" style="stroke:#181818;stroke-width:1;"/><line style="stroke:#181818;stroke-width:1;" x1="264.3774" x2="653.9956" y1="100.3125" y2="100.3125"/><text fill="#000000" font-family="sans-serif" font-size="13" lengthAdjust="spacing" textLength="69.3672" x="427.5029" y="95.4561">parse(input)</text></g><g class="message" data-entity-1="part3" data-entity-2="part4" id="msg3"><polygon fill="#181818" points="714.9956,110.3125,724.9956,114.3125,714.9956,118.3125,718.9956,114.3125" style="stroke:#181818;stroke-width:1;"/><line style="stroke:#181818;stroke-width:1;" x1="669.9956" x2="720.9956" y1="114.3125" y2="114.3125"/></g><rect fill="#BC00D1" height="31.6094" rx="2.5" ry="2.5" style="stroke:#181818;stroke-width:0.5;" width="107.3789" x="726.9956" y="108.3125"/><text fill="#FFFFFF" font-family="sans-serif" font-size="14" lengthAdjust="spacing" textLength="93.3789" x="733.9956" y="129.8457">:AddCommand</text><g class="message" data-entity-1="part4" data-entity-2="part3" id="msg5"><polygon fill="#181818" points="680.9956,169.2734,670.9956,173.2734,680.9956,177.2734,676.9956,173.2734" style="stroke:#181818;stroke-width:1;"/><line style="stroke:#181818;stroke-width:1;stroke-dasharray:2,2;" x1="674.9956" x2="779.6851" y1="173.2734" y2="173.2734"/><text fill="#000000" font-family="sans-serif" font-size="13" lengthAdjust="spacing" textLength="57.0781" x="696.8013" y="168.417">command</text></g><g class="message" data-entity-1="part3" data-entity-2="part1" id="msg6"><polygon fill="#181818" points="275.3774,199.625,265.3774,203.625,275.3774,207.625,271.3774,203.625" style="stroke:#181818;stroke-width:1;"/><line style="stroke:#181818;stroke-width:1;stroke-dasharray:2,2;" x1="269.3774" x2="663.9956" y1="203.625" y2="203.625"/><text fill="#000000" font-family="sans-serif" font-size="13" lengthAdjust="spacing" textLength="57.0781" x="436.1475" y="198.7686">command</text></g><g class="message" data-entity-1="part1" data-entity-2="part2" id="msg8"><polygon fill="#181818" points="460.2788,227.625,470.2788,231.625,460.2788,235.625,464.2788,231.625" style="stroke:#181818;stroke-width:1;"/><line style="stroke:#181818;stroke-width:1;" x1="264.3774" x2="466.2788" y1="231.625" y2="231.625"/></g><rect fill="#D1006C" height="31.6094" rx="2.5" ry="2.5" style="stroke:#181818;stroke-width:0.5;" width="130.7168" x="472.2788" y="225.625"/><text fill="#FFFFFF" font-family="sans-serif" font-size="14" lengthAdjust="spacing" textLength="116.7168" x="479.2788" y="247.1582">:CommandContext</text><g class="message" data-entity-1="part2" data-entity-2="part1" id="msg10"><polygon fill="#181818" points="275.3774,286.5859,265.3774,290.5859,275.3774,294.5859,271.3774,290.5859" style="stroke:#181818;stroke-width:1;"/><line style="stroke:#181818;stroke-width:1;stroke-dasharray:2,2;" x1="269.3774" x2="536.6372" y1="290.5859" y2="290.5859"/><text fill="#000000" font-family="sans-serif" font-size="13" lengthAdjust="spacing" textLength="41.9136" x="380.0505" y="285.7295">context</text></g><g class="message" data-entity-1="part1" data-entity-2="part4" id="msg11"><polygon fill="#181818" points="763.6851,316.9375,773.6851,320.9375,763.6851,324.9375,767.6851,320.9375" style="stroke:#181818;stroke-width:1;"/><line style="stroke:#181818;stroke-width:1;" x1="264.3774" x2="769.6851" y1="320.9375" y2="320.9375"/><text fill="#000000" font-family="sans-serif" font-size="13" lengthAdjust="spacing" textLength="96.1035" x="471.9795" y="316.0811">execute(context)</text></g><g class="message" data-entity-1="part4" data-entity-2="part2" id="msg12"><polygon fill="#181818" points="553.6372,347.2891,543.6372,351.2891,553.6372,355.2891,549.6372,351.2891" style="stroke:#181818;stroke-width:1;"/><line style="stroke:#181818;stroke-width:1;" x1="547.6372" x2="774.6851" y1="351.2891" y2="351.2891"/><text fill="#000000" font-family="sans-serif" font-size="13" lengthAdjust="spacing" textLength="84.5317" x="616.8953" y="346.4326">getTargetList()</text></g><g class="message" data-entity-1="part2" data-entity-2="part4" id="msg13"><polygon fill="#181818" points="763.6851,377.6406,773.6851,381.6406,763.6851,385.6406,767.6851,381.6406" style="stroke:#181818;stroke-width:1;"/><line style="stroke:#181818;stroke-width:1;stroke-dasharray:2,2;" x1="537.6372" x2="769.6851" y1="381.6406" y2="381.6406"/><text fill="#000000" font-family="sans-serif" font-size="13" lengthAdjust="spacing" textLength="119.9263" x="596.698" y="376.7842">inventory (CardsList)</text></g><path d="M790,394.6406 L790,436.6406 L926,436.6406 L926,404.6406 L916,394.6406 L790,394.6406" fill="#FEFFDD" style="stroke:#181818;stroke-width:0.5;"/><path d="M916,394.6406 L916,404.6406 L926,404.6406 L916,394.6406" fill="#FEFFDD" style="stroke:#181818;stroke-width:0.5;"/><text fill="#000000" font-family="sans-serif" font-size="13" lengthAdjust="spacing" textLength="104.0571" x="806.4441" y="413.1357">builds Card object</text><text fill="#000000" font-family="sans-serif" font-size="13" lengthAdjust="spacing" textLength="106.9453" x="805" y="429.4873">using Card.Builder</text><path d="M706.9956,449.3438 L767.1665,449.3438 L767.1665,457.6953 L757.1665,467.6953 L706.9956,467.6953 L706.9956,449.3438" fill="#EEEEEE" style="stroke:#000000;stroke-width:1.5;"/><rect fill="none" height="122.8906" style="stroke:#000000;stroke-width:1.5;" width="347.6177" x="706.9956" y="449.3438"/><text fill="#000000" font-family="sans-serif" font-size="13" font-weight="bold" lengthAdjust="spacing" textLength="15.1709" x="721.9956" y="463.8389">alt</text><text fill="#000000" font-family="sans-serif" font-size="11" font-weight="bold" lengthAdjust="spacing" textLength="253.0537" x="782.1665" y="462.7627">[duplicate card found (same name, price, fields)]</text><g class="message" data-entity-1="part4" data-entity-2="part5" id="msg14"><polygon fill="#181818" points="979.103,486.0469,989.103,490.0469,979.103,494.0469,983.103,490.0469" style="stroke:#181818;stroke-width:1;"/><line style="stroke:#181818;stroke-width:1;" x1="785.6851" x2="985.103" y1="490.0469" y2="490.0469"/><text fill="#000000" font-family="sans-serif" font-size="13" lengthAdjust="spacing" textLength="186.418" x="795.1851" y="485.1904">editCard(index, newQuantity, ...)</text></g><g class="message" data-entity-1="part5" data-entity-2="part4" id="msg15"><polygon fill="#181818" points="796.6851,500.0469,786.6851,504.0469,796.6851,508.0469,792.6851,504.0469" style="stroke:#181818;stroke-width:1;"/><line style="stroke:#181818;stroke-width:1;stroke-dasharray:2,2;" x1="790.6851" x2="995.103" y1="504.0469" y2="504.0469"/></g><line style="stroke:#000000;stroke-width:1;stroke-dasharray:2,2;" x1="706.9956" x2="1054.6133" y1="513.0469" y2="513.0469"/><text fill="#000000" font-family="sans-serif" font-size="11" font-weight="bold" lengthAdjust="spacing" textLength="105.7031" x="711.9956" y="524.4658">[no duplicate found]</text><g class="message" data-entity-1="part4" data-entity-2="part5" id="msg16"><polygon fill="#181818" points="979.103,546.2344,989.103,550.2344,979.103,554.2344,983.103,550.2344" style="stroke:#181818;stroke-width:1;"/><line style="stroke:#181818;stroke-width:1;" x1="785.6851" x2="985.103" y1="550.2344" y2="550.2344"/><text fill="#000000" font-family="sans-serif" font-size="13" lengthAdjust="spacing" textLength="83.8145" x="846.4868" y="545.3779">addCard(card)</text></g><g class="message" data-entity-1="part5" data-entity-2="part4" id="msg17"><polygon fill="#181818" points="796.6851,560.2344,786.6851,564.2344,796.6851,568.2344,792.6851,564.2344" style="stroke:#181818;stroke-width:1;"/><line style="stroke:#181818;stroke-width:1;stroke-dasharray:2,2;" x1="790.6851" x2="995.103" y1="564.2344" y2="564.2344"/></g><g class="message" data-entity-1="part4" data-entity-2="part6" id="msg18"><polygon fill="#181818" points="1079.6133,597.5859,1089.6133,601.5859,1079.6133,605.5859,1083.6133,601.5859" style="stroke:#181818;stroke-width:1;"/><line style="stroke:#181818;stroke-width:1;" x1="785.6851" x2="1085.6133" y1="601.5859" y2="601.5859"/><text fill="#000000" font-family="sans-serif" font-size="13" lengthAdjust="spacing" textLength="124.2871" x="876.5056" y="596.7295">printAdded(inventory)</text></g><g class="message" data-entity-1="part6" data-entity-2="part4" id="msg19"><polygon fill="#181818" points="796.6851,611.5859,786.6851,615.5859,796.6851,619.5859,792.6851,615.5859" style="stroke:#181818;stroke-width:1;"/><line style="stroke:#181818;stroke-width:1;stroke-dasharray:2,2;" x1="790.6851" x2="1095.6133" y1="615.5859" y2="615.5859"/></g><g class="message" data-entity-1="part4" data-entity-2="part1" id="msg20"><polygon fill="#181818" points="275.3774,641.9375,265.3774,645.9375,275.3774,649.9375,271.3774,645.9375" style="stroke:#181818;stroke-width:1;"/><line style="stroke:#181818;stroke-width:1;stroke-dasharray:2,2;" x1="269.3774" x2="779.6851" y1="645.9375" y2="645.9375"/><text fill="#000000" font-family="sans-serif" font-size="13" lengthAdjust="spacing" textLength="93.9263" x="475.5681" y="641.0811">commandResult</text></g><g class="message" data-entity-1="part1" data-entity-2="part2" id="msg21"><polygon fill="#181818" points="520.6372,672.2891,530.6372,676.2891,520.6372,680.2891,524.6372,676.2891" style="stroke:#181818;stroke-width:1;"/><line style="stroke:#181818;stroke-width:1;" x1="264.3774" x2="526.6372" y1="676.2891" y2="676.2891"/><text fill="#000000" font-family="sans-serif" font-size="13" lengthAdjust="spacing" textLength="249.2598" x="273.8774" y="671.4326">getCommandHistory().push(addCommand)</text></g><g class="message" data-entity-1="part2" data-entity-2="part1" id="msg22"><polygon fill="#181818" points="275.3774,686.2891,265.3774,690.2891,275.3774,694.2891,271.3774,690.2891" style="stroke:#181818;stroke-width:1;"/><line style="stroke:#181818;stroke-width:1;stroke-dasharray:2,2;" x1="269.3774" x2="536.6372" y1="690.2891" y2="690.2891"/></g><g class="message" data-entity-1="part1" data-entity-2="part1" id="msg23"><line style="stroke:#181818;stroke-width:1;" x1="264.3774" x2="306.3774" y1="720.6406" y2="720.6406"/><line style="stroke:#181818;stroke-width:1;" x1="306.3774" x2="306.3774" y1="720.6406" y2="733.6406"/><line style="stroke:#181818;stroke-width:1;" x1="265.3774" x2="306.3774" y1="733.6406" y2="733.6406"/><polygon fill="#181818" points="275.3774,729.6406,265.3774,733.6406,275.3774,737.6406,271.3774,733.6406" style="stroke:#181818;stroke-width:1;"/><text fill="#000000" font-family="sans-serif" font-size="13" lengthAdjust="spacing" textLength="66.4727" x="271.3774" y="715.7842">saveState()</text></g><g class="message" data-entity-1="part1" data-entity-2="part1" id="msg24"><polygon fill="#181818" points="11,743.6406,1,747.6406,11,751.6406,7,747.6406" style="stroke:#181818;stroke-width:1;"/><line style="stroke:#181818;stroke-width:1;stroke-dasharray:2,2;" x1="5" x2="258.3774" y1="747.6406" y2="747.6406"/></g><line style="stroke:#A80036;stroke-width:2;" x1="528.6372" x2="546.6372" y1="738.6406" y2="756.6406"/><line style="stroke:#A80036;stroke-width:2;" x1="528.6372" x2="546.6372" y1="756.6406" y2="738.6406"/><line style="stroke:#A80036;stroke-width:2;" x1="771.6851" x2="789.6851" y1="738.6406" y2="756.6406"/><line style="stroke:#A80036;stroke-width:2;" x1="771.6851" x2="789.6851" y1="756.6406" y2="738.6406"/><?plantuml-src hLNlRzem4Ftkl-B6fqGgy1rDax8KQPNAZmQGLdLJvSO6F0KdYnq6__tEIHfiGwawZGyXkVDxT_To3pu9cMOLux3GnumFYcgN4LBGKejK55Hgw8rYMh8uppAUwhpi0LNWHFpJ-Mv79QQbvWVT77T24CycasXw6y-co_7tvNCykvybp_FaRX8bZnxPd9QADpMRMvX7oMASN0L5ZBKLQ-3fyRNoLRIPJTqBfRj9woU8e-HsSHMv4ZLa9M1rvnqa_I-kQ3028OiAOPGn64gOHfCn37_3m_8HXWKWC1x3O33e4K9JBVPKSqzsbmyBj0gDe30tGSqVdj1Dcf2qvERn90jfWKXX1JkS5REaxDi5qpRF-2LKntz1X0l8jazllAUjO8pBdrtPRX1tkyvbyV8dDJsSkwINcssEMirw9EVLBSb6m0yyhJGFMgBmeiYEodxxIBBXUabBl9gr3CAF3EGq8-IUI-po246tvU6rsMIEmL9ijXhojSlrKecCDMw1_EKNJlz3Lah8JHqQV3Lfyyfefe5LHIPIKo0rnzTvXHI1eZiE4YytK9GYnQ-ruCWP4i2F9qbdIfIK2MsUSTqPFzo0v7yUAlIZqCSRuvy6xrYeXjRX4v6hJfsqbUXGF5FOPcuDKVV_JfFeyRf7C_3_RkXyO_07Q6H4b1hZt2ZJlcXhLrQ2u36lY5K0yxxRtx1kmbMLwRUi_uuRctLkOzzm7kmo2F5VI6q3sj64_spQ3rdL7r3HFLzeXAB9oET-_mgray2CqcL-z2k-XYrz_W80?></g></svg>