<?plantuml 1.2026.2?><svg xmlns="http://www.w3.org/2000/svg" xmlns:xlink="http://www.w3.org/1999/xlink" contentStyleType="text/css" data-diagram-type="CLASS" height="666px" preserveAspectRatio="none" style="width:770px;height:666px;background:#FFFFFF;" version="1.1" viewBox="0 0 770 666" width="770px" zoomAndPan="magnify"><defs/><g><!--class Command--><g class="entity" data-qualified-name="Command" data-source-line="3" id="ent0002"><rect fill="#F1F1F1" height="100.8281" rx="2.5" ry="2.5" style="stroke:#181818;stroke-width:0.5;" width="336.8506" x="261.5" y="7"/><ellipse cx="393.3857" cy="23" fill="#A9DCDF" rx="11" ry="11" style="stroke:#181818;stroke-width:1;"/><path d="M395.5732,24.7656 L391.4326,24.7656 L391.0107,25.7969 L391.4326,25.7969 Q392.042,25.7969 392.3076,26.0313 Q392.5732,26.2656 392.5732,26.6563 Q392.5732,27.0313 392.3076,27.2656 Q392.042,27.5 391.4326,27.5 L389.1357,27.5 Q388.5264,27.5 388.2764,27.2656 Q388.0107,27.0313 388.0107,26.6406 Q388.0107,26.2656 388.292,26.0313 Q388.5576,25.7813 389.1826,25.7969 L391.8545,19.1406 L390.7451,19.1406 Q390.1357,19.1406 389.8701,18.9063 Q389.6045,18.6719 389.6045,18.2813 Q389.6045,17.9063 389.8701,17.6719 Q390.1357,17.4375 390.7451,17.4375 L394.417,17.4375 L397.8076,25.7969 Q398.4014,25.7969 398.5889,25.9375 Q398.9795,26.2031 398.9795,26.6563 Q398.9795,27.0313 398.7139,27.2656 Q398.4639,27.5 397.8545,27.5 L395.5576,27.5 Q394.9482,27.5 394.6826,27.2656 Q394.417,27.0313 394.417,26.6406 Q394.417,26.2656 394.6826,26.0313 Q394.9482,25.7969 395.5576,25.7969 L395.9795,25.7969 L395.5732,24.7656 Z M394.8545,23.0625 L393.4951,19.6875 L392.1201,23.0625 L394.8545,23.0625 Z " fill="#000000"/><text fill="#000000" font-family="sans-serif" font-size="14" font-style="italic" lengthAdjust="spacing" textLength="64.5791" x="413.8857" y="28.7285">Command</text><line style="stroke:#181818;stroke-width:0.5;" x1="262.5" x2="597.3506" y1="39" y2="39"/><text fill="#000000" font-family="sans-serif" font-size="14" lengthAdjust="spacing" textLength="145.5303" x="267.5" y="57.5332">#isReversible : boolean</text><line style="stroke:#181818;stroke-width:0.5;" x1="262.5" x2="597.3506" y1="64.6094" y2="64.6094"/><text fill="#000000" font-family="sans-serif" font-size="14" lengthAdjust="spacing" textLength="324.8506" x="267.5" y="83.1426">+execute(ctx : CommandContext) : CommandResult</text><text fill="#000000" font-family="sans-serif" font-size="14" lengthAdjust="spacing" textLength="306.9609" x="267.5" y="100.752">+undo(ctx : CommandContext) : CommandResult</text></g><!--class AddCommand--><g class="entity" data-qualified-name="AddCommand" data-source-line="9" id="ent0003"><rect fill="#F1F1F1" height="312.1406" rx="2.5" ry="2.5" style="stroke:#181818;stroke-width:0.5;" width="336.8506" x="261.5" y="169"/><ellipse cx="380.9307" cy="185" fill="#ADD1B2" rx="11" ry="11" style="stroke:#181818;stroke-width:1;"/><path d="M383.6963,180.875 Q383.8525,180.6563 384.04,180.5469 Q384.2275,180.4375 384.4463,180.4375 Q384.8213,180.4375 385.0557,180.7031 Q385.29,180.9531 385.29,181.5625 L385.29,183.0156 Q385.29,183.625 385.0557,183.8906 Q384.8213,184.1563 384.4463,184.1563 Q384.1025,184.1563 383.8994,183.9531 Q383.6963,183.7656 383.5869,183.25 Q383.54,182.8906 383.3525,182.7031 Q383.0244,182.3281 382.415,182.1094 Q381.8057,181.8906 381.1807,181.8906 Q380.415,181.8906 379.7744,182.2188 Q379.1494,182.5469 378.6494,183.2969 Q378.165,184.0469 378.165,185.0781 L378.165,186.1719 Q378.165,187.4063 379.0557,188.2344 Q379.9463,189.0469 381.54,189.0469 Q382.4775,189.0469 383.1338,188.7969 Q383.5244,188.6406 383.9463,188.2031 Q384.2119,187.9375 384.3525,187.8594 Q384.5088,187.7813 384.7119,187.7813 Q385.04,187.7813 385.29,188.0469 Q385.5557,188.2969 385.5557,188.6406 Q385.5557,188.9844 385.2119,189.3906 Q384.7119,189.9688 383.915,190.2969 Q382.8369,190.75 381.54,190.75 Q380.0244,190.75 378.8213,190.125 Q377.8369,189.625 377.1494,188.5625 Q376.4619,187.4844 376.4619,186.2031 L376.4619,185.0469 Q376.4619,183.7188 377.0713,182.5781 Q377.6963,181.4219 378.79,180.8125 Q379.8838,180.1875 381.1182,180.1875 Q381.8525,180.1875 382.4932,180.3594 Q383.1494,180.5156 383.6963,180.875 Z " fill="#000000"/><text fill="#000000" font-family="sans-serif" font-size="14" lengthAdjust="spacing" textLength="89.4893" x="401.4307" y="190.7285">AddCommand</text><line style="stroke:#181818;stroke-width:0.5;" x1="262.5" x2="597.3506" y1="201" y2="201"/><text fill="#000000" font-family="sans-serif" font-size="14" lengthAdjust="spacing" textLength="69.2344" x="267.5" y="219.5332">-uid : UUID</text><text fill="#000000" font-family="sans-serif" font-size="14" lengthAdjust="spacing" textLength="87.9238" x="267.5" y="237.1426">-name : String</text><text fill="#000000" font-family="sans-serif" font-size="14" lengthAdjust="spacing" textLength="80.1514" x="267.5" y="254.752">-quantity : int</text><text fill="#000000" font-family="sans-serif" font-size="14" lengthAdjust="spacing" textLength="73.1377" x="267.5" y="272.3613">-price : float</text><text fill="#000000" font-family="sans-serif" font-size="14" lengthAdjust="spacing" textLength="101.1514" x="267.5" y="289.9707">-cardSet : String</text><text fill="#000000" font-family="sans-serif" font-size="14" lengthAdjust="spacing" textLength="84.0137" x="267.5" y="307.5801">-rarity : String</text><text fill="#000000" font-family="sans-serif" font-size="14" lengthAdjust="spacing" textLength="108.9443" x="267.5" y="325.1895">-condition : String</text><text fill="#000000" font-family="sans-serif" font-size="14" lengthAdjust="spacing" textLength="110.5166" x="267.5" y="342.7988">-language : String</text><text fill="#000000" font-family="sans-serif" font-size="14" lengthAdjust="spacing" textLength="129.9307" x="267.5" y="360.4082">-cardNumber : String</text><text fill="#000000" font-family="sans-serif" font-size="14" lengthAdjust="spacing" textLength="115.9512" x="267.5" y="378.0176">-addedCard : Card</text><text fill="#000000" font-family="sans-serif" font-size="14" lengthAdjust="spacing" textLength="104.2959" x="267.5" y="395.627">-addedIndex : int</text><text fill="#000000" font-family="sans-serif" font-size="14" lengthAdjust="spacing" textLength="138.5234" x="267.5" y="413.2363">-wasMerged : boolean</text><line style="stroke:#181818;stroke-width:0.5;" x1="262.5" x2="597.3506" y1="420.3125" y2="420.3125"/><text fill="#000000" font-family="sans-serif" font-size="14" lengthAdjust="spacing" textLength="324.8506" x="267.5" y="438.8457">+execute(ctx : CommandContext) : CommandResult</text><text fill="#000000" font-family="sans-serif" font-size="14" lengthAdjust="spacing" textLength="306.9609" x="267.5" y="456.4551">+undo(ctx : CommandContext) : CommandResult</text><text fill="#000000" font-family="sans-serif" font-size="14" lengthAdjust="spacing" textLength="287.1162" x="267.5" y="474.0645">-sameText(left : String, right : String) : boolean</text></g><!--class CommandContext--><g class="entity" data-qualified-name="CommandContext" data-source-line="27" id="ent0004"><rect fill="#F1F1F1" height="83.2188" rx="2.5" ry="2.5" style="stroke:#181818;stroke-width:0.5;" width="182.0098" x="7" y="568"/><ellipse cx="38.7322" cy="584" fill="#ADD1B2" rx="11" ry="11" style="stroke:#181818;stroke-width:1;"/><path d="M41.4978,579.875 Q41.6541,579.6563 41.8416,579.5469 Q42.0291,579.4375 42.2478,579.4375 Q42.6228,579.4375 42.8572,579.7031 Q43.0916,579.9531 43.0916,580.5625 L43.0916,582.0156 Q43.0916,582.625 42.8572,582.8906 Q42.6228,583.1563 42.2478,583.1563 Q41.9041,583.1563 41.7009,582.9531 Q41.4978,582.7656 41.3884,582.25 Q41.3416,581.8906 41.1541,581.7031 Q40.8259,581.3281 40.2166,581.1094 Q39.6072,580.8906 38.9822,580.8906 Q38.2166,580.8906 37.5759,581.2188 Q36.9509,581.5469 36.4509,582.2969 Q35.9666,583.0469 35.9666,584.0781 L35.9666,585.1719 Q35.9666,586.4063 36.8572,587.2344 Q37.7478,588.0469 39.3416,588.0469 Q40.2791,588.0469 40.9353,587.7969 Q41.3259,587.6406 41.7478,587.2031 Q42.0134,586.9375 42.1541,586.8594 Q42.3103,586.7813 42.5134,586.7813 Q42.8416,586.7813 43.0916,587.0469 Q43.3572,587.2969 43.3572,587.6406 Q43.3572,587.9844 43.0134,588.3906 Q42.5134,588.9688 41.7166,589.2969 Q40.6384,589.75 39.3416,589.75 Q37.8259,589.75 36.6228,589.125 Q35.6384,588.625 34.9509,587.5625 Q34.2634,586.4844 34.2634,585.2031 L34.2634,584.0469 Q34.2634,582.7188 34.8728,581.5781 Q35.4978,580.4219 36.5916,579.8125 Q37.6853,579.1875 38.9197,579.1875 Q39.6541,579.1875 40.2947,579.3594 Q40.9509,579.5156 41.4978,579.875 Z " fill="#000000"/><text fill="#000000" font-family="sans-serif" font-size="14" lengthAdjust="spacing" textLength="112.8271" x="56.4504" y="589.7285">CommandContext</text><line style="stroke:#181818;stroke-width:0.5;" x1="8" x2="188.0098" y1="600" y2="600"/><line style="stroke:#181818;stroke-width:0.5;" x1="8" x2="188.0098" y1="608" y2="608"/><text fill="#000000" font-family="sans-serif" font-size="14" lengthAdjust="spacing" textLength="170.0098" x="13" y="626.5332">+getTargetList() : CardsList</text><text fill="#000000" font-family="sans-serif" font-size="14" lengthAdjust="spacing" textLength="75.0723" x="13" y="644.1426">+getUi() : Ui</text></g><!--class CardsList--><g class="entity" data-qualified-name="CardsList" data-source-line="32" id="ent0005"><rect fill="#F1F1F1" height="100.8281" rx="2.5" ry="2.5" style="stroke:#181818;stroke-width:0.5;" width="217.0371" x="224.5" y="559"/><ellipse cx="299.2031" cy="575" fill="#ADD1B2" rx="11" ry="11" style="stroke:#181818;stroke-width:1;"/><path d="M301.9688,570.875 Q302.125,570.6563 302.3125,570.5469 Q302.5,570.4375 302.7188,570.4375 Q303.0938,570.4375 303.3281,570.7031 Q303.5625,570.9531 303.5625,571.5625 L303.5625,573.0156 Q303.5625,573.625 303.3281,573.8906 Q303.0938,574.1563 302.7188,574.1563 Q302.375,574.1563 302.1719,573.9531 Q301.9688,573.7656 301.8594,573.25 Q301.8125,572.8906 301.625,572.7031 Q301.2969,572.3281 300.6875,572.1094 Q300.0781,571.8906 299.4531,571.8906 Q298.6875,571.8906 298.0469,572.2188 Q297.4219,572.5469 296.9219,573.2969 Q296.4375,574.0469 296.4375,575.0781 L296.4375,576.1719 Q296.4375,577.4063 297.3281,578.2344 Q298.2188,579.0469 299.8125,579.0469 Q300.75,579.0469 301.4063,578.7969 Q301.7969,578.6406 302.2188,578.2031 Q302.4844,577.9375 302.625,577.8594 Q302.7813,577.7813 302.9844,577.7813 Q303.3125,577.7813 303.5625,578.0469 Q303.8281,578.2969 303.8281,578.6406 Q303.8281,578.9844 303.4844,579.3906 Q302.9844,579.9688 302.1875,580.2969 Q301.1094,580.75 299.8125,580.75 Q298.2969,580.75 297.0938,580.125 Q296.1094,579.625 295.4219,578.5625 Q294.7344,577.4844 294.7344,576.2031 L294.7344,575.0469 Q294.7344,573.7188 295.3438,572.5781 Q295.9688,571.4219 297.0625,570.8125 Q298.1563,570.1875 299.3906,570.1875 Q300.125,570.1875 300.7656,570.3594 Q301.4219,570.5156 301.9688,570.875 Z " fill="#000000"/><text fill="#000000" font-family="sans-serif" font-size="14" lengthAdjust="spacing" textLength="59.1309" x="319.7031" y="580.7285">CardsList</text><line style="stroke:#181818;stroke-width:0.5;" x1="225.5" x2="440.5371" y1="591" y2="591"/><line style="stroke:#181818;stroke-width:0.5;" x1="225.5" x2="440.5371" y1="599" y2="599"/><text fill="#000000" font-family="sans-serif" font-size="14" lengthAdjust="spacing" textLength="140.4512" x="230.5" y="617.5332">+addCard(card : Card)</text><text fill="#000000" font-family="sans-serif" font-size="14" lengthAdjust="spacing" textLength="143.582" x="230.5" y="635.1426">+editCard(...) : boolean</text><text fill="#000000" font-family="sans-serif" font-size="14" lengthAdjust="spacing" textLength="205.0371" x="230.5" y="652.752">+removeCardByIndex(index : int)</text></g><!--class Card--><g class="entity" data-qualified-name="Card" data-source-line="38" id="ent0006"><rect fill="#F1F1F1" height="100.8281" rx="2.5" ry="2.5" style="stroke:#181818;stroke-width:0.5;" width="99.9238" x="477" y="559"/><ellipse cx="508.9106" cy="575" fill="#ADD1B2" rx="11" ry="11" style="stroke:#181818;stroke-width:1;"/><path d="M511.6762,570.875 Q511.8325,570.6563 512.02,570.5469 Q512.2075,570.4375 512.4262,570.4375 Q512.8012,570.4375 513.0356,570.7031 Q513.27,570.9531 513.27,571.5625 L513.27,573.0156 Q513.27,573.625 513.0356,573.8906 Q512.8012,574.1563 512.4262,574.1563 Q512.0825,574.1563 511.8793,573.9531 Q511.6762,573.7656 511.5668,573.25 Q511.52,572.8906 511.3325,572.7031 Q511.0043,572.3281 510.395,572.1094 Q509.7856,571.8906 509.1606,571.8906 Q508.395,571.8906 507.7543,572.2188 Q507.1293,572.5469 506.6293,573.2969 Q506.145,574.0469 506.145,575.0781 L506.145,576.1719 Q506.145,577.4063 507.0356,578.2344 Q507.9262,579.0469 509.52,579.0469 Q510.4575,579.0469 511.1137,578.7969 Q511.5043,578.6406 511.9262,578.2031 Q512.1918,577.9375 512.3325,577.8594 Q512.4887,577.7813 512.6918,577.7813 Q513.02,577.7813 513.27,578.0469 Q513.5356,578.2969 513.5356,578.6406 Q513.5356,578.9844 513.1918,579.3906 Q512.6918,579.9688 511.895,580.2969 Q510.8168,580.75 509.52,580.75 Q508.0043,580.75 506.8012,580.125 Q505.8168,579.625 505.1293,578.5625 Q504.4418,577.4844 504.4418,576.2031 L504.4418,575.0469 Q504.4418,573.7188 505.0512,572.5781 Q505.6762,571.4219 506.77,570.8125 Q507.8637,570.1875 509.0981,570.1875 Q509.8325,570.1875 510.4731,570.3594 Q511.1293,570.5156 511.6762,570.875 Z " fill="#000000"/><text fill="#000000" font-family="sans-serif" font-size="14" lengthAdjust="spacing" textLength="30.3447" x="526.6685" y="580.7285">Card</text><line style="stroke:#181818;stroke-width:0.5;" x1="478" x2="575.9238" y1="591" y2="591"/><text fill="#000000" font-family="sans-serif" font-size="14" lengthAdjust="spacing" textLength="87.9238" x="483" y="609.5332">-name : String</text><text fill="#000000" font-family="sans-serif" font-size="14" lengthAdjust="spacing" textLength="80.1514" x="483" y="627.1426">-quantity : int</text><text fill="#000000" font-family="sans-serif" font-size="14" lengthAdjust="spacing" textLength="73.1377" x="483" y="644.752">-price : float</text><line style="stroke:#181818;stroke-width:0.5;" x1="478" x2="575.9238" y1="651.8281" y2="651.8281"/></g><!--class CommandResult--><g class="entity" data-qualified-name="CommandResult" data-source-line="44" id="ent0007"><rect fill="#F1F1F1" height="83.2188" rx="2.5" ry="2.5" style="stroke:#181818;stroke-width:0.5;" width="151.3232" x="612.5" y="568"/><ellipse cx="634.2777" cy="584" fill="#ADD1B2" rx="11" ry="11" style="stroke:#181818;stroke-width:1;"/><path d="M637.0433,579.875 Q637.1996,579.6563 637.3871,579.5469 Q637.5746,579.4375 637.7933,579.4375 Q638.1683,579.4375 638.4027,579.7031 Q638.6371,579.9531 638.6371,580.5625 L638.6371,582.0156 Q638.6371,582.625 638.4027,582.8906 Q638.1683,583.1563 637.7933,583.1563 Q637.4496,583.1563 637.2464,582.9531 Q637.0433,582.7656 636.9339,582.25 Q636.8871,581.8906 636.6996,581.7031 Q636.3714,581.3281 635.7621,581.1094 Q635.1527,580.8906 634.5277,580.8906 Q633.7621,580.8906 633.1214,581.2188 Q632.4964,581.5469 631.9964,582.2969 Q631.5121,583.0469 631.5121,584.0781 L631.5121,585.1719 Q631.5121,586.4063 632.4027,587.2344 Q633.2933,588.0469 634.8871,588.0469 Q635.8246,588.0469 636.4808,587.7969 Q636.8714,587.6406 637.2933,587.2031 Q637.5589,586.9375 637.6996,586.8594 Q637.8558,586.7813 638.0589,586.7813 Q638.3871,586.7813 638.6371,587.0469 Q638.9027,587.2969 638.9027,587.6406 Q638.9027,587.9844 638.5589,588.3906 Q638.0589,588.9688 637.2621,589.2969 Q636.1839,589.75 634.8871,589.75 Q633.3714,589.75 632.1683,589.125 Q631.1839,588.625 630.4964,587.5625 Q629.8089,586.4844 629.8089,585.2031 L629.8089,584.0469 Q629.8089,582.7188 630.4183,581.5781 Q631.0433,580.4219 632.1371,579.8125 Q633.2308,579.1875 634.4652,579.1875 Q635.1996,579.1875 635.8402,579.3594 Q636.4964,579.5156 637.0433,579.875 Z " fill="#000000"/><text fill="#000000" font-family="sans-serif" font-size="14" lengthAdjust="spacing" textLength="104.2617" x="649.7838" y="589.7285">CommandResult</text><line style="stroke:#181818;stroke-width:0.5;" x1="613.5" x2="762.8232" y1="600" y2="600"/><text fill="#000000" font-family="sans-serif" font-size="14" lengthAdjust="spacing" textLength="99.6064" x="618.5" y="618.5332">-isExit : boolean</text><text fill="#000000" font-family="sans-serif" font-size="14" lengthAdjust="spacing" textLength="139.3232" x="618.5" y="636.1426">-shouldSave : boolean</text><line style="stroke:#181818;stroke-width:0.5;" x1="613.5" x2="762.8232" y1="643.2188" y2="643.2188"/></g><!--reverse link Command to AddCommand--><g class="link" data-entity-1="ent0002" data-entity-2="ent0003" data-link-type="extension" data-source-line="49" id="lnk8"><path codeLine="49" d="M430,126.13 C430,143.91 430,147.03 430,168.98" fill="none" id="Command-backto-AddCommand" style="stroke:#181818;stroke-width:1;"/><polygon fill="none" points="430,108.13,424,126.13,436,126.13,430,108.13" style="stroke:#181818;stroke-width:1;"/></g><!--link AddCommand to CommandContext--><g class="link" data-entity-1="ent0003" data-entity-2="ent0004" data-link-type="dependency" data-source-line="51" id="lnk9"><path codeLine="51" d="M261.08,469.73 C218.63,505.85 181.0105,537.8727 150.1705,564.1027" fill="none" id="AddCommand-to-CommandContext" style="stroke:#181818;stroke-width:1;stroke-dasharray:7,7;"/><polygon fill="#181818" points="145.6,567.99,155.0472,565.2061,149.4087,564.7506,149.8642,559.1121,145.6,567.99" style="stroke:#181818;stroke-width:1;"/><text fill="#000000" font-family="sans-serif" font-size="13" lengthAdjust="spacing" textLength="27.46" x="207" y="525.4951">uses</text><text fill="#000000" font-family="sans-serif" font-size="13" lengthAdjust="spacing" textLength="7.23" x="246.2758" y="473.4255">1</text><text fill="#000000" font-family="sans-serif" font-size="13" lengthAdjust="spacing" textLength="7.23" x="145.9223" y="557.296">1</text></g><!--link AddCommand to CardsList--><g class="link" data-entity-1="ent0003" data-entity-2="ent0005" data-link-type="dependency" data-source-line="52" id="lnk10"><path codeLine="52" d="M376.68,481.3 C367.03,509.38 359.5982,531.0351 352.0182,553.1151" fill="none" id="AddCommand-to-CardsList" style="stroke:#181818;stroke-width:1;stroke-dasharray:7,7;"/><polygon fill="#181818" points="350.07,558.79,356.7755,551.5764,351.6935,554.0609,349.209,548.9788,350.07,558.79" style="stroke:#181818;stroke-width:1;"/><text fill="#000000" font-family="sans-serif" font-size="13" lengthAdjust="spacing" textLength="26.0063" x="366" y="525.4951">calls</text><text fill="#000000" font-family="sans-serif" font-size="13" lengthAdjust="spacing" textLength="7.23" x="366.937" y="502.7585">1</text><text fill="#000000" font-family="sans-serif" font-size="13" lengthAdjust="spacing" textLength="7.23" x="344.9918" y="548.0658">1</text></g><!--link AddCommand to Card--><g class="link" data-entity-1="ent0003" data-entity-2="ent0006" data-link-type="dependency" data-source-line="53" id="lnk11"><path codeLine="53" d="M483.32,481.3 C492.97,509.38 500.4018,531.0351 507.9818,553.1151" fill="none" id="AddCommand-to-Card" style="stroke:#181818;stroke-width:1;stroke-dasharray:7,7;"/><polygon fill="#181818" points="509.93,558.79,510.791,548.9788,508.3065,554.0609,503.2245,551.5764,509.93,558.79" style="stroke:#181818;stroke-width:1;"/><text fill="#000000" font-family="sans-serif" font-size="13" lengthAdjust="spacing" textLength="42.6309" x="500" y="525.4951">creates</text><text fill="#000000" font-family="sans-serif" font-size="13" lengthAdjust="spacing" textLength="7.23" x="478.7423" y="502.7585">1</text><text fill="#000000" font-family="sans-serif" font-size="13" lengthAdjust="spacing" textLength="21.6836" x="485.1064" y="548.0658">0..1</text></g><!--link AddCommand to CommandResult--><g class="link" data-entity-1="ent0003" data-entity-2="ent0007" data-link-type="dependency" data-source-line="54" id="lnk12"><path codeLine="54" d="M571.83,481.3 C601.1,513.35 625.4438,539.9996 646.8238,563.4096" fill="none" id="AddCommand-to-CommandResult" style="stroke:#181818;stroke-width:1;stroke-dasharray:7,7;"/><polygon fill="#181818" points="650.87,567.84,647.7543,558.497,647.4982,564.148,641.8471,563.8919,650.87,567.84" style="stroke:#181818;stroke-width:1;"/><text fill="#000000" font-family="sans-serif" font-size="13" lengthAdjust="spacing" textLength="40.46" x="612" y="525.4951">returns</text><text fill="#000000" font-family="sans-serif" font-size="13" lengthAdjust="spacing" textLength="7.23" x="571.5395" y="502.7585">1</text><text fill="#000000" font-family="sans-serif" font-size="13" lengthAdjust="spacing" textLength="7.23" x="637.1329" y="557.1212">1</text></g><?plantuml-src lPB1Jjmm48RlUGgBNXBHZUXrXP1WsyDAm85b7s0I3s5KnwRsU0ajl3ksaoN9YYBKGtE9_Cy_uvdFutwIVW0BhQWLE7VERAdoZElQw0tzHd6IPL0vjb1pRn4hqxQWfVYJ2V55aBl17Lf7bKAn59Kn2a67qB703kjGAg-v2v4XRMKqOyV5gDoWyufJXjVIVDB-acLzE-TIJZjQ24yokBVRzVTqrD36nZPXCDqavPS7pSHFGINDINgmL4VNdJBGApLOkK6UPrgmVTv42w0aCHazbnNenaDpS7MiUktR2krS1obHha8mpXb-exZM4hj9fu_Whj0sAFydx7Yn2nnlGpHNU3TY-IeiDVVZkPYqzVP4y_BfcOv5WtmBOH2-9CTvCGpkucaVtrBIjpGfjVSCLGAZAENroAxeUOH7IP6oB8i3LXPRiyCOlNXAV7CQAHVpouQb-eSjEXo_PpdK8_UZ8vxr5H3V6w_a1dOufxZVxzFdnMAoxrassVsZRqUYBC_I_u3tKdY7xg_cDwBnMuOLLUfzyqbP3duXzcQBm1_Kdas-3E3PM-rU0G00?></g></svg>