<?plantuml 1.2026.2?><svg xmlns="http://www.w3.org/2000/svg" xmlns:xlink="http://www.w3.org/1999/xlink" contentStyleType="text/css" data-diagram-type="SEQUENCE" height="413.1px" preserveAspectRatio="none" style="width:649px;height:413px;background:#FFFFFF;" version="1.1" viewBox="0 0 649 413" width="649.8px" zoomAndPan="magnify"><defs/><g><g><title>.CardCollector</title><rect fill="#FFFFFF" height="326.0514" style="stroke:#181818;stroke-width:0.9;" width="9" x="139.2302" y="64.7209"/></g><g><title>.CommandContext</title><rect fill="#FFFFFF" height="45.8209" style="stroke:#181818;stroke-width:0.9;" width="9" x="271.6167" y="222.6656"/></g><g><title>.Parser</title><rect fill="#FFFFFF" height="95.5828" style="stroke:#181818;stroke-width:0.9;" width="9" x="386.2393" y="92.8828"/></g><g><title>.HistoryCommand</title><rect fill="#FFFFFF" height="45.8209" style="stroke:#181818;stroke-width:0.9;" width="9" x="498.7516" y="114.4828"/></g><g><title>.HistoryCommand</title><rect fill="#FFFFFF" height="68.9238" style="stroke:#181818;stroke-width:0.9;" width="9" x="498.7516" y="296.6484"/></g><g><title>.Ui</title><rect fill="#FFFFFF" height="12.6" style="stroke:#181818;stroke-width:0.9;" width="9" x="611.2639" y="324.8104"/></g><g class="participant-lifeline" data-entity-uid="part1" data-qualified-name="CardCollector" id="part1-lifeline"><g><title>.CardCollector</title><rect fill="#000000" fill-opacity="0.00000" height="372.2133" width="7.2" x="140.1302" y="34.759"/><line style="stroke:#181818;stroke-width:0.45;stroke-dasharray:4.5,4.5;" x1="143.0662" x2="143.0662" y1="34.759" y2="406.9723"/></g></g><g class="participant-lifeline" data-entity-uid="part2" data-qualified-name="CommandContext" id="part2-lifeline"><g><title>.CommandContext</title><rect fill="#000000" fill-opacity="0.00000" height="170.0771" width="7.2" x="272.5167" y="236.8951"/><line style="stroke:#181818;stroke-width:0.45;stroke-dasharray:4.5,4.5;" x1="275.7942" x2="275.7942" y1="236.8951" y2="406.9723"/></g></g><g class="participant-lifeline" data-entity-uid="part3" data-qualified-name="Parser" id="part3-lifeline"><g><title>.Parser</title><rect fill="#000000" fill-opacity="0.00000" height="372.2133" width="7.2" x="387.1393" y="34.759"/><line style="stroke:#181818;stroke-width:0.45;stroke-dasharray:4.5,4.5;" x1="390.7393" x2="390.7393" y1="34.759" y2="406.9723"/></g></g><g class="participant-lifeline" data-entity-uid="part4" data-qualified-name="HistoryCommand" id="part4-lifeline"><g><title>.HistoryCommand</title><rect fill="#000000" fill-opacity="0.00000" height="278.26" width="7.2" x="499.6516" y="128.7123"/><line style="stroke:#181818;stroke-width:0.45;stroke-dasharray:4.5,4.5;" x1="503.2393" x2="503.2393" y1="128.7123" y2="406.9723"/></g></g><g class="participant-lifeline" data-entity-uid="part5" data-qualified-name="Ui" id="part5-lifeline"><g><title>.Ui</title><rect fill="#000000" fill-opacity="0.00000" height="372.2133" width="7.2" x="612.1639" y="34.759"/><line style="stroke:#181818;stroke-width:0.45;stroke-dasharray:4.5,4.5;" x1="615.7639" x2="615.7639" y1="34.759" y2="406.9723"/></g></g><g class="participant participant-head" data-entity-uid="part1" data-qualified-name="CardCollector" id="part1-head"><rect fill="#E2E2F0" height="29.359" rx="2.25" ry="2.25" style="stroke:#181818;stroke-width:0.45;" width="93.128" x="97.1662" y="4.5"/><text fill="#000000" font-family="sans-serif" font-size="12.6" lengthAdjust="spacing" textLength="80.528" x="103.4662" y="24.3967">:CardCollector</text></g><g class="participant participant-head" data-entity-uid="part3" data-qualified-name="Parser" id="part3-head"><rect fill="#4536FF" height="29.359" rx="2.25" ry="2.25" style="stroke:#181818;stroke-width:0.45;" width="57.6" x="361.9393" y="4.5"/><text fill="#FFFFFF" font-family="sans-serif" font-size="12.6" lengthAdjust="spacing" textLength="40.6116" x="370.4335" y="24.3967">:Parser</text></g><g class="participant participant-head" data-entity-uid="part5" data-qualified-name="Ui" id="part5-head"><rect fill="#D16C00" height="29.359" rx="2.25" ry="2.25" style="stroke:#181818;stroke-width:0.45;" width="57.6" x="586.9639" y="4.5"/><text fill="#FFFFFF" font-family="sans-serif" font-size="12.6" lengthAdjust="spacing" textLength="15.3993" x="608.0643" y="24.3967">:Ui</text></g><g><title>.CardCollector</title><rect fill="#FFFFFF" height="326.0514" style="stroke:#181818;stroke-width:0.9;" width="9" x="139.2302" y="64.7209"/></g><g><title>.CommandContext</title><rect fill="#FFFFFF" height="45.8209" style="stroke:#181818;stroke-width:0.9;" width="9" x="271.6167" y="222.6656"/></g><g><title>.Parser</title><rect fill="#FFFFFF" height="95.5828" style="stroke:#181818;stroke-width:0.9;" width="9" x="386.2393" y="92.8828"/></g><g><title>.HistoryCommand</title><rect fill="#FFFFFF" height="45.8209" style="stroke:#181818;stroke-width:0.9;" width="9" x="498.7516" y="114.4828"/></g><g><title>.HistoryCommand</title><rect fill="#FFFFFF" height="68.9238" style="stroke:#181818;stroke-width:0.9;" width="9" x="498.7516" y="296.6484"/></g><g><title>.Ui</title><rect fill="#FFFFFF" height="12.6" style="stroke:#181818;stroke-width:0.9;" width="9" x="611.2639" y="324.8104"/></g><g class="message" data-entity-1="part1" data-entity-2="part1" id="msg1"><polygon fill="#181818" points="128.4302,61.1209,137.4302,64.7209,128.4302,68.3209,132.0302,64.7209" style="stroke:#181818;stroke-width:0.9;"/><line style="stroke:#181818;stroke-width:0.9;" x1="0" x2="133.8302" y1="64.7209" y2="64.7209"/><text fill="#000000" font-family="sans-serif" font-size="11.7" lengthAdjust="spacing" textLength="122.1302" x="8.55" y="59.9845">input "history all added"</text></g><g class="message" data-entity-1="part1" data-entity-2="part3" id="msg2"><polygon fill="#181818" points="375.4393,89.2828,384.4393,92.8828,375.4393,96.4828,379.0393,92.8828" style="stroke:#181818;stroke-width:0.9;"/><line style="stroke:#181818;stroke-width:0.9;" x1="148.2302" x2="380.8393" y1="92.8828" y2="92.8828"/><text fill="#000000" font-family="sans-serif" font-size="11.7" lengthAdjust="spacing" textLength="62.4305" x="236.0195" y="88.1464">parse(input)</text></g><g class="message" data-entity-1="part3" data-entity-2="part4" id="msg3"><polygon fill="#181818" points="435.7393,101.8828,444.7393,105.4828,435.7393,109.0828,439.3393,105.4828" style="stroke:#181818;stroke-width:0.9;"/><line style="stroke:#181818;stroke-width:0.9;" x1="395.2393" x2="441.1393" y1="105.4828" y2="105.4828"/></g><rect fill="#BC00D1" height="29.359" rx="2.25" ry="2.25" style="stroke:#181818;stroke-width:0.45;" width="113.4246" x="446.5393" y="100.0828"/><text fill="#FFFFFF" font-family="sans-serif" font-size="12.6" lengthAdjust="spacing" textLength="100.8246" x="452.8393" y="119.9795">:HistoryCommand</text><g class="message" data-entity-1="part4" data-entity-2="part3" id="msg5"><polygon fill="#181818" points="405.1393,156.7037,396.1393,160.3037,405.1393,163.9037,401.5393,160.3037" style="stroke:#181818;stroke-width:0.9;"/><line style="stroke:#181818;stroke-width:0.9;stroke-dasharray:1.8,1.8;" x1="399.7393" x2="502.3516" y1="160.3037" y2="160.3037"/><text fill="#000000" font-family="sans-serif" font-size="11.7" lengthAdjust="spacing" textLength="51.3703" x="423.5603" y="155.5673">command</text></g><g class="message" data-entity-1="part3" data-entity-2="part1" id="msg6"><polygon fill="#181818" points="158.1302,184.8656,149.1302,188.4656,158.1302,192.0656,154.5302,188.4656" style="stroke:#181818;stroke-width:0.9;"/><line style="stroke:#181818;stroke-width:0.9;stroke-dasharray:1.8,1.8;" x1="152.7302" x2="389.8393" y1="188.4656" y2="188.4656"/><text fill="#000000" font-family="sans-serif" font-size="11.7" lengthAdjust="spacing" textLength="51.3703" x="243.7996" y="183.7292">command</text></g><g class="message" data-entity-1="part1" data-entity-2="part2" id="msg8"><polygon fill="#181818" points="206.4942,210.0656,215.4942,213.6656,206.4942,217.2656,210.0942,213.6656" style="stroke:#181818;stroke-width:0.9;"/><line style="stroke:#181818;stroke-width:0.9;" x1="148.2302" x2="211.8942" y1="213.6656" y2="213.6656"/></g><rect fill="#D1006C" height="29.359" rx="2.25" ry="2.25" style="stroke:#181818;stroke-width:0.45;" width="117.6451" x="217.2942" y="208.2656"/><text fill="#FFFFFF" font-family="sans-serif" font-size="12.6" lengthAdjust="spacing" textLength="105.0451" x="223.5942" y="228.1623">:CommandContext</text><g class="message" data-entity-1="part2" data-entity-2="part1" id="msg10"><polygon fill="#181818" points="158.1302,264.8865,149.1302,268.4865,158.1302,272.0865,154.5302,268.4865" style="stroke:#181818;stroke-width:0.9;"/><line style="stroke:#181818;stroke-width:0.9;stroke-dasharray:1.8,1.8;" x1="152.7302" x2="275.2167" y1="268.4865" y2="268.4865"/><text fill="#000000" font-family="sans-serif" font-size="11.7" lengthAdjust="spacing" textLength="37.7222" x="193.3124" y="263.7501">context</text></g><g class="message" data-entity-1="part1" data-entity-2="part4" id="msg11"><polygon fill="#181818" points="487.9516,293.0484,496.9516,296.6484,487.9516,300.2484,491.5516,296.6484" style="stroke:#181818;stroke-width:0.9;"/><line style="stroke:#181818;stroke-width:0.9;" x1="148.2302" x2="493.3516" y1="296.6484" y2="296.6484"/><text fill="#000000" font-family="sans-serif" font-size="11.7" lengthAdjust="spacing" textLength="86.4932" x="280.2443" y="291.912">execute(context)</text></g><g class="message" data-entity-1="part4" data-entity-2="part5" id="msg12"><polygon fill="#181818" points="600.4639,321.2104,609.4639,324.8104,600.4639,328.4104,604.0639,324.8104" style="stroke:#181818;stroke-width:0.9;"/><line style="stroke:#181818;stroke-width:0.9;" x1="507.7516" x2="605.8639" y1="324.8104" y2="324.8104"/><text fill="#000000" font-family="sans-serif" font-size="11.7" lengthAdjust="spacing" textLength="76.707" x="521.1543" y="320.0739">printHistory(...)</text></g><g class="message" data-entity-1="part5" data-entity-2="part4" id="msg13"><polygon fill="#181818" points="517.6516,333.8104,508.6516,337.4104,517.6516,341.0104,514.0516,337.4104" style="stroke:#181818;stroke-width:0.9;"/><line style="stroke:#181818;stroke-width:0.9;stroke-dasharray:1.8,1.8;" x1="512.2516" x2="614.8639" y1="337.4104" y2="337.4104"/></g><g class="message" data-entity-1="part4" data-entity-2="part1" id="msg14"><polygon fill="#181818" points="158.1302,361.9723,149.1302,365.5723,158.1302,369.1723,154.5302,365.5723" style="stroke:#181818;stroke-width:0.9;"/><line style="stroke:#181818;stroke-width:0.9;stroke-dasharray:1.8,1.8;" x1="152.7302" x2="502.3516" y1="365.5723" y2="365.5723"/><text fill="#000000" font-family="sans-serif" font-size="11.7" lengthAdjust="spacing" textLength="84.5336" x="283.4741" y="360.8358">commandResult</text></g><g class="message" data-entity-1="part1" data-entity-2="part1" id="msg16"><polygon fill="#181818" points="9.9,387.1723,0.9,390.7723,9.9,394.3723,6.3,390.7723" style="stroke:#181818;stroke-width:0.9;"/><line style="stroke:#181818;stroke-width:0.9;stroke-dasharray:1.8,1.8;" x1="4.5" x2="142.8302" y1="390.7723" y2="390.7723"/></g><line style="stroke:#A80036;stroke-width:1.8;" x1="268.0167" x2="284.2167" y1="382.6723" y2="398.8723"/><line style="stroke:#A80036;stroke-width:1.8;" x1="268.0167" x2="284.2167" y1="398.8723" y2="382.6723"/><line style="stroke:#A80036;stroke-width:1.8;" x1="495.1516" x2="511.3516" y1="382.6723" y2="398.8723"/><line style="stroke:#A80036;stroke-width:1.8;" x1="495.1516" x2="511.3516" y1="398.8723" y2="382.6723"/><?plantuml-src XLDTQy8m57tFhxZpHGThVq0PWdJ2X6cbAjiOGq9xeO6ObZJTzDyljQasQNLFndllkH_dd3umaV0gHTYe4qU_g0wS459GgLZ22YeKZ8AGoZJCEST4vN84j0GhubRdXmCLEYqK7bLJReKWZ9RBsUebZ5RR-STs7qPlKRnVnulbBFvqcgsfBB6PsJnXFOity_Wkw9MLUgsJcNe6sw5sWxjTTkoCt37OBPn2uarj2Y009efAmx9c453EWQOffYD2QABO3rNeq6Ptq2tDXG4KzMDoxlXuHJTfGXA9zL_x96B0kesJkE2Tk4E9rrqWCJKfta9VvWrGCO0skpidVsLCKoI-BwC96RyZK8cGvWBXbwaCL8OD8V89EAeIpFrrt4pIluspwZSUCQdi_BZbp3PYNm4dVnNEmTb-7kQWARroGFhZ70c2TlU9GJ_U5A-dtbGRLHj7Cg5CQkBxVgV1ZX5jPQ_lZuvAkcR85ZVqZR6ikBhZaV_LVlOyvwFeTBCJEbCgcPzSBTgmC_iF?></g></svg>