<?plantuml 1.2026.2?><svg xmlns="http://www.w3.org/2000/svg" xmlns:xlink="http://www.w3.org/1999/xlink" contentStyleType="text/css" data-diagram-type="SEQUENCE" height="404.4px" preserveAspectRatio="none" style="width:537px;height:404px;background:#FFFFFF;" version="1.1" viewBox="0 0 537 404" width="537.6px" zoomAndPan="magnify"><defs/><g><g><title>.CardsHistory</title><rect fill="#FFFFFF" height="346.8328" style="stroke:#181818;stroke-width:0.6;" width="6" x="130.1824" y="43.1473"/></g><g><title>.CardsHistory</title><rect fill="#FFFFFF" height="15" style="stroke:#181818;stroke-width:0.6;" width="6" x="133.1824" y="362.3801"/></g><g><title>.CardHistoryEntry</title><rect fill="#FFFFFF" height="254.6836" style="stroke:#181818;stroke-width:0.6;" width="6" x="330.0662" y="67.9219"/></g><g><title>.CardHistoryEntry</title><rect fill="#FFFFFF" height="25.3746" style="stroke:#181818;stroke-width:0.6;" width="6" x="333.0662" y="173.3754"/></g><rect fill="#FFFFFF" height="236.4855" style="stroke:#000000;stroke-width:0.9;" width="256.0078" x="277.7256" y="78.3199"/><rect fill="#FFFFFF" height="32.3531" style="stroke:none;stroke-width:0.6;" width="256.0078" x="277.7256" y="112.2691"/><rect fill="#FFFFFF" height="170.1832" style="stroke:none;stroke-width:0.6;" width="256.0078" x="277.7256" y="144.6223"/><rect fill="#FFFFFF" height="98.6555" style="stroke:#000000;stroke-width:0.9;" width="244.0078" x="283.7256" y="211.95"/><rect fill="#FFFFFF" height="32.3531" style="stroke:none;stroke-width:0.6;" width="244.0078" x="283.7256" y="245.8992"/><rect fill="#FFFFFF" height="32.3531" style="stroke:none;stroke-width:0.6;" width="244.0078" x="283.7256" y="278.2523"/><g class="participant-lifeline" data-entity-uid="part1" data-qualified-name="CardsHistory" id="part1-lifeline"><g><title>.CardsHistory</title><rect fill="#000000" fill-opacity="0.00000" height="377.6074" width="4.8" x="130.7824" y="23.1727"/><line style="stroke:#181818;stroke-width:0.3;stroke-dasharray:3,3;" x1="132.9445" x2="132.9445" y1="23.1727" y2="400.7801"/></g></g><g class="participant-lifeline" data-entity-uid="part2" data-qualified-name="CardHistoryEntry" id="part2-lifeline"><g><title>.CardHistoryEntry</title><rect fill="#000000" fill-opacity="0.00000" height="333.7465" width="4.8" x="330.6662" y="67.0336"/><line style="stroke:#181818;stroke-width:0.3;stroke-dasharray:3,3;" x1="332.9256" x2="332.9256" y1="67.0336" y2="400.7801"/></g></g><g class="participant participant-head" data-entity-uid="part1" data-qualified-name="CardsHistory" id="part1-head"><rect fill="#E2E2F0" height="19.5727" rx="1.5" ry="1.5" style="stroke:#181818;stroke-width:0.3;" width="59.2758" x="103.5445" y="3"/><text fill="#000000" font-family="sans-serif" font-size="8.4" lengthAdjust="spacing" textLength="50.8758" x="107.7445" y="16.2645">:CardsHistory</text></g><g><title>.CardsHistory</title><rect fill="#FFFFFF" height="346.8328" style="stroke:#181818;stroke-width:0.6;" width="6" x="130.1824" y="43.1473"/></g><g><title>.CardsHistory</title><rect fill="#FFFFFF" height="15" style="stroke:#181818;stroke-width:0.6;" width="6" x="133.1824" y="362.3801"/></g><g><title>.CardHistoryEntry</title><rect fill="#FFFFFF" height="254.6836" style="stroke:#181818;stroke-width:0.6;" width="6" x="330.0662" y="67.9219"/></g><g><title>.CardHistoryEntry</title><rect fill="#FFFFFF" height="25.3746" style="stroke:#181818;stroke-width:0.6;" width="6" x="333.0662" y="173.3754"/></g><g class="message" data-entity-1="part1" data-entity-2="part1" id="msg1"><polygon fill="#181818" points="122.9824,40.7473,128.9824,43.1473,122.9824,45.5473,125.3824,43.1473" style="stroke:#181818;stroke-width:0.6;"/><line style="stroke:#181818;stroke-width:0.6;" x1="0" x2="126.5824" y1="43.1473" y2="43.1473"/><text fill="#000000" font-family="sans-serif" font-size="7.8" lengthAdjust="spacing" textLength="118.7824" x="5.7" y="39.9896">add(previous: Card, current: Card)</text></g><g class="message" data-entity-1="part1" data-entity-2="part2" id="msg2"><polygon fill="#181818" points="288.5256,59.5219,294.5256,61.9219,288.5256,64.3219,290.9256,61.9219" style="stroke:#181818;stroke-width:0.6;"/><line style="stroke:#181818;stroke-width:0.6;" x1="136.1824" x2="292.1256" y1="61.9219" y2="61.9219"/><text fill="#000000" font-family="sans-serif" font-size="7.8" lengthAdjust="spacing" textLength="139.1432" x="146.3824" y="58.7643">new CardHistoryEntry(previous, current)</text></g><rect fill="#E2E2F0" height="19.5727" rx="1.5" ry="1.5" style="stroke:#181818;stroke-width:0.3;" width="74.6812" x="295.7256" y="47.9473"/><text fill="#000000" font-family="sans-serif" font-size="8.4" lengthAdjust="spacing" textLength="66.2813" x="299.9256" y="61.2117">:CardHistoryEntry</text><path d="M277.7256,78.3199 L313.8281,78.3199 L313.8281,83.8945 L307.8281,89.8945 L277.7256,89.8945 L277.7256,78.3199" fill="#EEEEEE" style="stroke:#000000;stroke-width:0.9;"/><rect fill="none" height="236.4855" style="stroke:#000000;stroke-width:0.9;" width="256.0078" x="277.7256" y="78.3199"/><text fill="#000000" font-family="sans-serif" font-size="7.8" font-weight="bold" lengthAdjust="spacing" textLength="9.1025" x="286.7256" y="87.3369">alt</text><text fill="#000000" font-family="sans-serif" font-size="6.6" font-weight="bold" lengthAdjust="spacing" textLength="112.3998" x="322.8281" y="86.642">[previous == null &amp;&amp; current != null]</text><path d="M375,92.8945 L375,109.0945 L503.4,109.0945 L503.4,98.8945 L497.4,92.8945 L375,92.8945" fill="#FEFFDD" style="stroke:#181818;stroke-width:0.3;"/><path d="M497.4,92.8945 L497.4,98.8945 L503.4,98.8945 L497.4,92.8945" fill="#FEFFDD" style="stroke:#181818;stroke-width:0.3;"/><text fill="#000000" font-family="sans-serif" font-size="7.8" lengthAdjust="spacing" textLength="110.533" x="384" y="104.3115">Set to CardHistoryType.ADDED</text><line style="stroke:#000000;stroke-width:0.6;stroke-dasharray:1.2,1.2;" x1="277.7256" x2="533.7334" y1="112.8691" y2="112.8691"/><text fill="#000000" font-family="sans-serif" font-size="6.6" font-weight="bold" lengthAdjust="spacing" textLength="112.3998" x="280.7256" y="119.9912">[previous != null &amp;&amp; current == null]</text><path d="M375,125.2477 L375,141.4477 L515.4,141.4477 L515.4,131.2477 L509.4,125.2477 L375,125.2477" fill="#FEFFDD" style="stroke:#181818;stroke-width:0.3;"/><path d="M509.4,125.2477 L509.4,131.2477 L515.4,131.2477 L509.4,125.2477" fill="#FEFFDD" style="stroke:#181818;stroke-width:0.3;"/><text fill="#000000" font-family="sans-serif" font-size="7.8" lengthAdjust="spacing" textLength="122.6672" x="384" y="136.6646">Set to CardHistoryType.REMOVED</text><line style="stroke:#000000;stroke-width:0.6;stroke-dasharray:1.2,1.2;" x1="277.7256" x2="533.7334" y1="145.2223" y2="145.2223"/><text fill="#000000" font-family="sans-serif" font-size="6.6" font-weight="bold" lengthAdjust="spacing" textLength="17.2412" x="280.7256" y="152.3443">[else]</text><g class="message" data-entity-1="part2" data-entity-2="part2" id="msg8"><line style="stroke:#181818;stroke-width:0.6;" x1="336.0662" x2="364.2662" y1="165.5754" y2="165.5754"/><line style="stroke:#181818;stroke-width:0.6;" x1="364.2662" x2="364.2662" y1="165.5754" y2="173.3754"/><line style="stroke:#181818;stroke-width:0.6;" x1="339.6662" x2="364.2662" y1="173.3754" y2="173.3754"/><polygon fill="#181818" points="345.6662,170.9754,339.6662,173.3754,345.6662,175.7754,343.2662,173.3754" style="stroke:#181818;stroke-width:0.6;"/><text fill="#000000" font-family="sans-serif" font-size="7.8" lengthAdjust="spacing" textLength="76.747" x="343.2662" y="162.4178">getChangedQuantity()</text></g><g class="message" data-entity-1="part2" data-entity-2="part2" id="msg9"><line style="stroke:#181818;stroke-width:0.6;stroke-dasharray:1.2,1.2;" x1="339.0662" x2="364.2662" y1="198.15" y2="198.15"/><line style="stroke:#181818;stroke-width:0.6;stroke-dasharray:1.2,1.2;" x1="364.2662" x2="364.2662" y1="198.15" y2="205.95"/><line style="stroke:#181818;stroke-width:0.6;stroke-dasharray:1.2,1.2;" x1="336.0662" x2="364.2662" y1="205.95" y2="205.95"/><polygon fill="#181818" points="342.0662,203.55,336.0662,205.95,342.0662,208.35,339.6662,205.95" style="stroke:#181818;stroke-width:0.6;"/><text fill="#000000" font-family="sans-serif" font-size="7.8" lengthAdjust="spacing" textLength="58.9761" x="343.2662" y="194.9924">changedQuantity</text></g><path d="M283.7256,211.95 L319.8281,211.95 L319.8281,217.5246 L313.8281,223.5246 L283.7256,223.5246 L283.7256,211.95" fill="#EEEEEE" style="stroke:#000000;stroke-width:0.9;"/><rect fill="none" height="98.6555" style="stroke:#000000;stroke-width:0.9;" width="244.0078" x="283.7256" y="211.95"/><text fill="#000000" font-family="sans-serif" font-size="7.8" font-weight="bold" lengthAdjust="spacing" textLength="9.1025" x="292.7256" y="220.967">alt</text><text fill="#000000" font-family="sans-serif" font-size="6.6" font-weight="bold" lengthAdjust="spacing" textLength="69.4934" x="328.8281" y="220.2721">[changedQuantity &gt; 0]</text><path d="M375,226.5246 L375,242.7246 L503.4,242.7246 L503.4,232.5246 L497.4,226.5246 L375,226.5246" fill="#FEFFDD" style="stroke:#181818;stroke-width:0.3;"/><path d="M497.4,226.5246 L497.4,232.5246 L503.4,232.5246 L497.4,226.5246" fill="#FEFFDD" style="stroke:#181818;stroke-width:0.3;"/><text fill="#000000" font-family="sans-serif" font-size="7.8" lengthAdjust="spacing" textLength="110.533" x="384" y="237.9416">Set to CardHistoryType.ADDED</text><line style="stroke:#000000;stroke-width:0.6;stroke-dasharray:1.2,1.2;" x1="283.7256" x2="527.7334" y1="246.4992" y2="246.4992"/><text fill="#000000" font-family="sans-serif" font-size="6.6" font-weight="bold" lengthAdjust="spacing" textLength="69.4934" x="286.7256" y="253.6213">[changedQuantity &lt; 0]</text><path d="M375,258.8777 L375,275.0777 L515.4,275.0777 L515.4,264.8777 L509.4,258.8777 L375,258.8777" fill="#FEFFDD" style="stroke:#181818;stroke-width:0.3;"/><path d="M509.4,258.8777 L509.4,264.8777 L515.4,264.8777 L509.4,258.8777" fill="#FEFFDD" style="stroke:#181818;stroke-width:0.3;"/><text fill="#000000" font-family="sans-serif" font-size="7.8" lengthAdjust="spacing" textLength="122.6672" x="384" y="270.2947">Set to CardHistoryType.REMOVED</text><line style="stroke:#000000;stroke-width:0.6;stroke-dasharray:1.2,1.2;" x1="283.7256" x2="527.7334" y1="278.8523" y2="278.8523"/><text fill="#000000" font-family="sans-serif" font-size="6.6" font-weight="bold" lengthAdjust="spacing" textLength="17.2412" x="286.7256" y="285.9744">[else]</text><path d="M375,291.2309 L375,307.4309 L514.2,307.4309 L514.2,297.2309 L508.2,291.2309 L375,291.2309" fill="#FEFFDD" style="stroke:#181818;stroke-width:0.3;"/><path d="M508.2,291.2309 L508.2,297.2309 L514.2,297.2309 L508.2,291.2309" fill="#FEFFDD" style="stroke:#181818;stroke-width:0.3;"/><text fill="#000000" font-family="sans-serif" font-size="7.8" lengthAdjust="spacing" textLength="121.3608" x="384" y="302.6479">Set to CardHistoryType.MODIFIED</text><g class="message" data-entity-1="part2" data-entity-2="part1" id="msg16"><polygon fill="#181818" points="142.7824,320.2055,136.7824,322.6055,142.7824,325.0055,140.3824,322.6055" style="stroke:#181818;stroke-width:0.6;"/><line style="stroke:#181818;stroke-width:0.6;stroke-dasharray:1.2,1.2;" x1="139.1824" x2="332.4662" y1="322.6055" y2="322.6055"/></g><g class="message" data-entity-1="part1" data-entity-2="part1" id="msg18"><line style="stroke:#181818;stroke-width:0.6;" x1="136.1824" x2="164.3824" y1="354.5801" y2="354.5801"/><line style="stroke:#181818;stroke-width:0.6;" x1="164.3824" x2="164.3824" y1="354.5801" y2="362.3801"/><line style="stroke:#181818;stroke-width:0.6;" x1="139.7824" x2="164.3824" y1="362.3801" y2="362.3801"/><polygon fill="#181818" points="145.7824,359.9801,139.7824,362.3801,145.7824,364.7801,143.3824,362.3801" style="stroke:#181818;stroke-width:0.6;"/><text fill="#000000" font-family="sans-serif" font-size="7.8" lengthAdjust="spacing" textLength="75.8558" x="143.3824" y="351.4225">add(cardHistoryEntry)</text></g><g class="message" data-entity-1="part1" data-entity-2="part1" id="msg19"><line style="stroke:#181818;stroke-width:0.6;stroke-dasharray:1.2,1.2;" x1="139.1824" x2="164.3824" y1="376.7801" y2="376.7801"/><line style="stroke:#181818;stroke-width:0.6;stroke-dasharray:1.2,1.2;" x1="164.3824" x2="164.3824" y1="376.7801" y2="384.5801"/><line style="stroke:#181818;stroke-width:0.6;stroke-dasharray:1.2,1.2;" x1="136.1824" x2="164.3824" y1="384.5801" y2="384.5801"/><polygon fill="#181818" points="142.1824,382.1801,136.1824,384.5801,142.1824,386.9801,139.7824,384.5801" style="stroke:#181818;stroke-width:0.6;"/></g><g class="message" data-entity-1="part1" data-entity-2="part1" id="msg20"><polygon fill="#181818" points="6.6,387.5801,0.6,389.9801,6.6,392.3801,4.2,389.9801" style="stroke:#181818;stroke-width:0.6;"/><line style="stroke:#181818;stroke-width:0.6;stroke-dasharray:1.2,1.2;" x1="3" x2="132.5824" y1="389.9801" y2="389.9801"/></g><?plantuml-src lPHHQy8m4CVVyobE7yJ2AdiM5OPrp0UHpR6NiOUG73MGfILD7VtsYz7MfhQw3LoXXLxkxl_h_SlrX68ovmWRKqWSfVcd98IaL1l1H4gLWVvuJZNFdaHc4btqWMPG3xJa7ayMojJowq52mfdN1CP0EH-c6dSYoREnExm3bckDoXnU0q8eCs973Ve0X6aiWvwAft1Kh2TOLOLVP-4Aem88V6N_KmYL1ieIc4v1vLB2O50MG-yG8c2lCuJmVIiuH_NHmkSgL69LjOYtTWmRD62IUjvhaUBe8OeM4K6PuOcZTyunlJN7osArVYj9zeyEgLOdOZJpBLKnykVS_ah25CF0rNUFlhrxUtlcztQr72_OwgIjiur2cC6zE_lR57_bw3xPpRB9CFaFXjBDYg9ozAQogtMqV5oMkegJ_MslJgEhFN3HpiOoQC2UTadRpcXiATPe7dJi9R_L5TeJ0Pc4uGzJlm40?></g></svg>