<svg xmlns="http://www.w3.org/2000/svg" xmlns:xlink="http://www.w3.org/1999/xlink" contentStyleType="text/css" data-diagram-type="SEQUENCE" height="396.8px" preserveAspectRatio="none" style="width:471px;height:396px;background:#FFFFFF;" version="1.1" viewBox="0 0 471 396" width="471.2px" zoomAndPan="magnify"><defs/><g><g><title>.Parser</title><rect fill="#FFFFFF" height="84.9625" style="stroke:#181818;stroke-width:0.8;" width="8" x="184.6508" y="57.5297"/></g><g><title>.HistoryCommand</title><rect fill="#FFFFFF" height="40.7297" style="stroke:#181818;stroke-width:0.8;" width="8" x="284.6617" y="76.7297"/></g><g><title>.HistoryCommand</title><rect fill="#FFFFFF" height="186.9734" style="stroke:#181818;stroke-width:0.8;" width="8" x="284.6617" y="178.725"/></g><g><title>.Ui</title><rect fill="#FFFFFF" height="11.2" style="stroke:#181818;stroke-width:0.8;" width="8" x="420.5555" y="224.7906"/></g><g><title>.Ui</title><rect fill="#FFFFFF" height="11.2" style="stroke:#181818;stroke-width:0.8;" width="8" x="420.5555" y="274.3281"/></g><g><title>.Ui</title><rect fill="#FFFFFF" height="11.2" style="stroke:#181818;stroke-width:0.8;" width="8" x="420.5555" y="323.8656"/></g><rect fill="#FAFAFA" height="150.7406" style="stroke:#000000;stroke-width:1.2;" width="243.9047" x="222.2508" y="190.725"/><rect fill="#FAFAFA" height="49.5375" style="stroke:none;stroke-width:0.8;" width="243.9047" x="222.2508" y="242.3906"/><rect fill="#FAFAFA" height="49.5375" style="stroke:none;stroke-width:0.8;" width="243.9047" x="222.2508" y="291.9281"/><g><title>.CardCollector</title><rect fill="#000000" fill-opacity="0.00000" height="360.4016" width="6.4" x="50.1902" y="30.8969"/><line style="stroke:#181818;stroke-width:0.4;stroke-dasharray:4,4;" x1="52.8" x2="52.8" y1="30.8969" y2="391.2984"/></g><g><title>.Parser</title><rect fill="#000000" fill-opacity="0.00000" height="360.4016" width="6.4" x="185.4508" y="30.8969"/><line style="stroke:#181818;stroke-width:0.4;stroke-dasharray:4,4;" x1="188.6508" x2="188.6508" y1="30.8969" y2="391.2984"/></g><g><title>.HistoryCommand</title><rect fill="#000000" fill-opacity="0.00000" height="301.9203" width="6.4" x="285.4617" y="89.3781"/><line style="stroke:#181818;stroke-width:0.4;stroke-dasharray:4,4;" x1="288.6508" x2="288.6508" y1="89.3781" y2="391.2984"/></g><g><title>.Ui</title><rect fill="#000000" fill-opacity="0.00000" height="360.4016" width="6.4" x="421.3555" y="30.8969"/><line style="stroke:#181818;stroke-width:0.4;stroke-dasharray:4,4;" x1="424.5555" x2="424.5555" y1="30.8969" y2="391.2984"/></g><g class="participant participant-head" data-participant="CardCollector"><rect fill="#009BA3" height="26.0969" rx="2" ry="2" style="stroke:#181818;stroke-width:0.4;" width="82.7805" x="12" y="4"/><text fill="#FFFFFF" font-family="sans-serif" font-size="11.2" lengthAdjust="spacing" textLength="71.5805" x="17.6" y="21.6859">:CardCollector</text></g><g class="participant participant-head" data-participant="Parser"><rect fill="#4536FF" height="26.0969" rx="2" ry="2" style="stroke:#181818;stroke-width:0.4;" width="51.2" x="163.0508" y="4"/><text fill="#FFFFFF" font-family="sans-serif" font-size="11.2" lengthAdjust="spacing" textLength="36.0992" x="170.6012" y="21.6859">:Parser</text></g><g class="participant participant-head" data-participant="Ui"><rect fill="#D16C00" height="26.0969" rx="2" ry="2" style="stroke:#181818;stroke-width:0.4;" width="51.2" x="398.9555" y="4"/><text fill="#FFFFFF" font-family="sans-serif" font-size="11.2" lengthAdjust="spacing" textLength="13.6883" x="417.7113" y="21.6859">:Ui</text></g><g><title>.Parser</title><rect fill="#FFFFFF" height="84.9625" style="stroke:#181818;stroke-width:0.8;" width="8" x="184.6508" y="57.5297"/></g><g><title>.HistoryCommand</title><rect fill="#FFFFFF" height="40.7297" style="stroke:#181818;stroke-width:0.8;" width="8" x="284.6617" y="76.7297"/></g><g><title>.HistoryCommand</title><rect fill="#FFFFFF" height="186.9734" style="stroke:#181818;stroke-width:0.8;" width="8" x="284.6617" y="178.725"/></g><g><title>.Ui</title><rect fill="#FFFFFF" height="11.2" style="stroke:#181818;stroke-width:0.8;" width="8" x="420.5555" y="224.7906"/></g><g><title>.Ui</title><rect fill="#FFFFFF" height="11.2" style="stroke:#181818;stroke-width:0.8;" width="8" x="420.5555" y="274.3281"/></g><g><title>.Ui</title><rect fill="#FFFFFF" height="11.2" style="stroke:#181818;stroke-width:0.8;" width="8" x="420.5555" y="323.8656"/></g><g class="message" data-participant-1="CardCollector" data-participant-2="Parser"><polygon fill="#181818" points="175.0508,54.3297,183.0508,57.5297,175.0508,60.7297,178.2508,57.5297" style="stroke:#181818;stroke-width:0.8;"/><line style="stroke:#181818;stroke-width:0.8;" x1="53.3902" x2="179.8508" y1="57.5297" y2="57.5297"/><text fill="#000000" font-family="sans-serif" font-size="10.4" lengthAdjust="spacing" textLength="116.0605" x="60.9902" y="53.3195">parse("history added all")</text></g><g class="message" data-participant-1="Parser" data-participant-2="HistoryCommand"><polygon fill="#181818" points="228.6508,65.5297,236.6508,68.7297,228.6508,71.9297,231.8508,68.7297" style="stroke:#181818;stroke-width:0.8;"/><line style="stroke:#181818;stroke-width:0.8;" x1="192.6508" x2="233.4508" y1="68.7297" y2="68.7297"/></g><rect fill="#BC00D1" height="26.0969" rx="2" ry="2" style="stroke:#181818;stroke-width:0.4;" width="100.8219" x="238.2508" y="63.9297"/><text fill="#FFFFFF" font-family="sans-serif" font-size="11.2" lengthAdjust="spacing" textLength="89.6219" x="243.8508" y="81.6156">:HistoryCommand</text><g class="message" data-participant-1="HistoryCommand" data-participant-2="Parser"><polygon fill="#181818" points="201.4508,114.2594,193.4508,117.4594,201.4508,120.6594,198.2508,117.4594" style="stroke:#181818;stroke-width:0.8;"/><line style="stroke:#181818;stroke-width:0.8;stroke-dasharray:1.6,1.6;" x1="196.6508" x2="287.8617" y1="117.4594" y2="117.4594"/><text fill="#000000" font-family="sans-serif" font-size="10.4" lengthAdjust="spacing" textLength="45.6625" x="217.825" y="113.2492">command</text></g><g class="message" data-participant-1="Parser" data-participant-2="CardCollector"><polygon fill="#181818" points="62.1902,139.2922,54.1902,142.4922,62.1902,145.6922,58.9902,142.4922" style="stroke:#181818;stroke-width:0.8;"/><line style="stroke:#181818;stroke-width:0.8;stroke-dasharray:1.6,1.6;" x1="57.3902" x2="187.8508" y1="142.4922" y2="142.4922"/><text fill="#000000" font-family="sans-serif" font-size="10.4" lengthAdjust="spacing" textLength="45.6625" x="98.1893" y="138.282">command</text></g><g class="message" data-participant-1="CardCollector" data-participant-2="HistoryCommand"><polygon fill="#181818" points="275.0617,175.525,283.0617,178.725,275.0617,181.925,278.2617,178.725" style="stroke:#181818;stroke-width:0.8;"/><line style="stroke:#181818;stroke-width:0.8;" x1="53.3902" x2="279.8617" y1="178.725" y2="178.725"/><text fill="#000000" font-family="sans-serif" font-size="10.4" lengthAdjust="spacing" textLength="52.0203" x="143.0158" y="174.5148">execute(...)</text></g><path d="M222.2508,190.725 L270.3875,190.725 L270.3875,198.1578 L262.3875,206.1578 L222.2508,206.1578 L222.2508,190.725" fill="#EEEEEE" style="stroke:#000000;stroke-width:1.2;"/><rect fill="none" height="150.7406" style="stroke:#000000;stroke-width:1.2;" width="243.9047" x="222.2508" y="190.725"/><text fill="#000000" font-family="sans-serif" font-size="10.4" font-weight="bold" lengthAdjust="spacing" textLength="12.1367" x="234.2508" y="202.7477">alt</text><text fill="#000000" font-family="sans-serif" font-size="8.8" font-weight="bold" lengthAdjust="spacing" textLength="110.5027" x="282.3875" y="201.8211">[CardHistoryType.ADDED]</text><g class="message" data-participant-1="HistoryCommand" data-participant-2="Ui"><polygon fill="#181818" points="410.9555,221.5906,418.9555,224.7906,410.9555,227.9906,414.1555,224.7906" style="stroke:#181818;stroke-width:0.8;"/><line style="stroke:#181818;stroke-width:0.8;" x1="292.6617" x2="415.7555" y1="224.7906" y2="224.7906"/><text fill="#000000" font-family="sans-serif" font-size="10.4" lengthAdjust="spacing" textLength="98.2566" x="307.4803" y="220.5805">printAddedHistory(...)</text></g><g class="message" data-participant-1="Ui" data-participant-2="HistoryCommand"><polygon fill="#181818" points="301.4617,232.7906,293.4617,235.9906,301.4617,239.1906,298.2617,235.9906" style="stroke:#181818;stroke-width:0.8;"/><line style="stroke:#181818;stroke-width:0.8;stroke-dasharray:1.6,1.6;" x1="296.6617" x2="423.7555" y1="235.9906" y2="235.9906"/></g><line style="stroke:#000000;stroke-width:0.8;stroke-dasharray:1.6,1.6;" x1="222.2508" x2="466.1555" y1="243.1906" y2="243.1906"/><text fill="#000000" font-family="sans-serif" font-size="8.8" font-weight="bold" lengthAdjust="spacing" textLength="122.2332" x="226.2508" y="252.6867">[CardHistoryType.MODIFIED]</text><g class="message" data-participant-1="HistoryCommand" data-participant-2="Ui"><polygon fill="#181818" points="410.9555,271.1281,418.9555,274.3281,410.9555,277.5281,414.1555,274.3281" style="stroke:#181818;stroke-width:0.8;"/><line style="stroke:#181818;stroke-width:0.8;" x1="292.6617" x2="415.7555" y1="274.3281" y2="274.3281"/><text fill="#000000" font-family="sans-serif" font-size="10.4" lengthAdjust="spacing" textLength="107.4938" x="302.8617" y="270.118">printModifiedHistory(...)</text></g><g class="message" data-participant-1="Ui" data-participant-2="HistoryCommand"><polygon fill="#181818" points="301.4617,282.3281,293.4617,285.5281,301.4617,288.7281,298.2617,285.5281" style="stroke:#181818;stroke-width:0.8;"/><line style="stroke:#181818;stroke-width:0.8;stroke-dasharray:1.6,1.6;" x1="296.6617" x2="423.7555" y1="285.5281" y2="285.5281"/></g><line style="stroke:#000000;stroke-width:0.8;stroke-dasharray:1.6,1.6;" x1="222.2508" x2="466.1555" y1="292.7281" y2="292.7281"/><text fill="#000000" font-family="sans-serif" font-size="8.8" font-weight="bold" lengthAdjust="spacing" textLength="118.8258" x="226.2508" y="302.2242">[CardHistoryType.Removed]</text><g class="message" data-participant-1="HistoryCommand" data-participant-2="Ui"><polygon fill="#181818" points="410.9555,320.6656,418.9555,323.8656,410.9555,327.0656,414.1555,323.8656" style="stroke:#181818;stroke-width:0.8;"/><line style="stroke:#181818;stroke-width:0.8;" x1="292.6617" x2="415.7555" y1="323.8656" y2="323.8656"/><text fill="#000000" font-family="sans-serif" font-size="10.4" lengthAdjust="spacing" textLength="112.6938" x="300.2617" y="319.6555">printRemovedHistory(...)</text></g><g class="message" data-participant-1="Ui" data-participant-2="HistoryCommand"><polygon fill="#181818" points="301.4617,331.8656,293.4617,335.0656,301.4617,338.2656,298.2617,335.0656" style="stroke:#181818;stroke-width:0.8;"/><line style="stroke:#181818;stroke-width:0.8;stroke-dasharray:1.6,1.6;" x1="296.6617" x2="423.7555" y1="335.0656" y2="335.0656"/></g><g class="message" data-participant-1="HistoryCommand" data-participant-2="CardCollector"><polygon fill="#181818" points="62.1902,362.4984,54.1902,365.6984,62.1902,368.8984,58.9902,365.6984" style="stroke:#181818;stroke-width:0.8;"/><line style="stroke:#181818;stroke-width:0.8;stroke-dasharray:1.6,1.6;" x1="57.3902" x2="287.8617" y1="365.6984" y2="365.6984"/><text fill="#000000" font-family="sans-serif" font-size="10.4" lengthAdjust="spacing" textLength="75.141" x="133.4555" y="361.4883">commandResult</text></g><line style="stroke:#A80036;stroke-width:1.6;" x1="281.4617" x2="295.8617" y1="369.6984" y2="384.0984"/><line style="stroke:#A80036;stroke-width:1.6;" x1="281.4617" x2="295.8617" y1="384.0984" y2="369.6984"/><!--SRC=[jL9TQuCm57tFhxXp3srXzGVqeI3QiK9TYwsCCSO8vXO3gKfCk_dl5pMLcdwzR0Ra9lUUUyxzUE1P8lOCOQqgWMwntmb22YeLJtX1CmNEnAUI-RaGcAXSEa1BwBs0xqM1lrmiPlvc6NrfI_zNqJpqedShquhA4jiKhGahBrhFReDUUAbPAZ_VxMZ66d3_2Vnb67glmSqiCM-GCOTuRWMIVZdZwL7S18hQ63ffomUKCMH0XN16X2QA7wX24qn88h6-zhKHaqedjHmTtdgtQXkVoabC3CDhw8vFm_fbNKGRxLO3FbAk2yq-Esf21cy8L2AmF4FuvYe5bMBR7la40bK9-8F9NkUi7OPgSDvQgxp94JPqNNTqjIc42WMFMrgVfYxZtrG5kbuGp082-hDxDzNpraEKF5DUFJhZRxbgGCSNy-QkrsDyFghQSz8q7OkYn3CTuJAOFy_lImbpnhVylzL4kCiFoEw9CM5_fwMUreKTlhAC4PPxeMuizDtLP5WgcLSMxXS0]--></g></svg>