<?plantuml 1.2026.2?><svg xmlns="http://www.w3.org/2000/svg" xmlns:xlink="http://www.w3.org/1999/xlink" contentStyleType="text/css" data-diagram-type="SEQUENCE" height="321.3px" preserveAspectRatio="none" style="width:505px;height:321px;background:#FFFFFF;" version="1.1" viewBox="0 0 505 321" width="505.4px" zoomAndPan="magnify"><defs/><g><g><title>.CardCollector</title><rect fill="#FFFFFF" height="253.5955" style="stroke:#181818;stroke-width:0.7;" width="7" x="108.2901" y="50.3385"/></g><g><title>.CommandContext</title><rect fill="#FFFFFF" height="35.6385" style="stroke:#181818;stroke-width:0.7;" width="7" x="211.2575" y="173.1844"/></g><g><title>.Parser</title><rect fill="#FFFFFF" height="74.3422" style="stroke:#181818;stroke-width:0.7;" width="7" x="300.4083" y="72.2422"/></g><g><title>.HistoryCommand</title><rect fill="#FFFFFF" height="35.6385" style="stroke:#181818;stroke-width:0.7;" width="7" x="387.9179" y="89.0422"/></g><g><title>.HistoryCommand</title><rect fill="#FFFFFF" height="53.6074" style="stroke:#181818;stroke-width:0.7;" width="7" x="387.9179" y="230.7266"/></g><g><title>.Ui</title><rect fill="#FFFFFF" height="9.8" style="stroke:#181818;stroke-width:0.7;" width="7" x="475.4275" y="252.6303"/></g><g class="participant-lifeline" data-entity-uid="part1" data-qualified-name="CardCollector" id="part1-lifeline"><g><title>.CardCollector</title><rect fill="#000000" fill-opacity="0.00000" height="289.4992" width="5.6" x="108.9901" y="27.0348"/><line style="stroke:#181818;stroke-width:0.35;stroke-dasharray:3.5,3.5;" x1="111.2737" x2="111.2737" y1="27.0348" y2="316.534"/></g></g><g class="participant-lifeline" data-entity-uid="part2" data-qualified-name="CommandContext" id="part2-lifeline"><g><title>.CommandContext</title><rect fill="#000000" fill-opacity="0.00000" height="132.2822" width="5.6" x="211.9575" y="184.2518"/><line style="stroke:#181818;stroke-width:0.35;stroke-dasharray:3.5,3.5;" x1="214.5066" x2="214.5066" y1="184.2518" y2="316.534"/></g></g><g class="participant-lifeline" data-entity-uid="part3" data-qualified-name="Parser" id="part3-lifeline"><g><title>.Parser</title><rect fill="#000000" fill-opacity="0.00000" height="289.4992" width="5.6" x="301.1083" y="27.0348"/><line style="stroke:#181818;stroke-width:0.35;stroke-dasharray:3.5,3.5;" x1="303.9083" x2="303.9083" y1="27.0348" y2="316.534"/></g></g><g class="participant-lifeline" data-entity-uid="part4" data-qualified-name="HistoryCommand" id="part4-lifeline"><g><title>.HistoryCommand</title><rect fill="#000000" fill-opacity="0.00000" height="216.4244" width="5.6" x="388.6179" y="100.1096"/><line style="stroke:#181818;stroke-width:0.35;stroke-dasharray:3.5,3.5;" x1="391.4083" x2="391.4083" y1="100.1096" y2="316.534"/></g></g><g class="participant-lifeline" data-entity-uid="part5" data-qualified-name="Ui" id="part5-lifeline"><g><title>.Ui</title><rect fill="#000000" fill-opacity="0.00000" height="289.4992" width="5.6" x="476.1275" y="27.0348"/><line style="stroke:#181818;stroke-width:0.35;stroke-dasharray:3.5,3.5;" x1="478.9275" x2="478.9275" y1="27.0348" y2="316.534"/></g></g><g class="participant participant-head" data-entity-uid="part1" data-qualified-name="CardCollector" id="part1-head"><rect fill="#E2E2F0" height="22.8348" rx="1.75" ry="1.75" style="stroke:#181818;stroke-width:0.35;" width="72.4329" x="75.5737" y="3.5"/><text fill="#000000" font-family="sans-serif" font-size="9.8" lengthAdjust="spacing" textLength="62.6329" x="80.4737" y="18.9752">:CardCollector</text></g><g class="participant participant-head" data-entity-uid="part3" data-qualified-name="Parser" id="part3-head"><rect fill="#4536FF" height="22.8348" rx="1.75" ry="1.75" style="stroke:#181818;stroke-width:0.35;" width="44.8" x="281.5083" y="3.5"/><text fill="#FFFFFF" font-family="sans-serif" font-size="9.8" lengthAdjust="spacing" textLength="31.5868" x="288.1149" y="18.9752">:Parser</text></g><g class="participant participant-head" data-entity-uid="part5" data-qualified-name="Ui" id="part5-head"><rect fill="#D16C00" height="22.8348" rx="1.75" ry="1.75" style="stroke:#181818;stroke-width:0.35;" width="44.8" x="456.5275" y="3.5"/><text fill="#FFFFFF" font-family="sans-serif" font-size="9.8" lengthAdjust="spacing" textLength="11.9772" x="472.9389" y="18.9752">:Ui</text></g><g><title>.CardCollector</title><rect fill="#FFFFFF" height="253.5955" style="stroke:#181818;stroke-width:0.7;" width="7" x="108.2901" y="50.3385"/></g><g><title>.CommandContext</title><rect fill="#FFFFFF" height="35.6385" style="stroke:#181818;stroke-width:0.7;" width="7" x="211.2575" y="173.1844"/></g><g><title>.Parser</title><rect fill="#FFFFFF" height="74.3422" style="stroke:#181818;stroke-width:0.7;" width="7" x="300.4083" y="72.2422"/></g><g><title>.HistoryCommand</title><rect fill="#FFFFFF" height="35.6385" style="stroke:#181818;stroke-width:0.7;" width="7" x="387.9179" y="89.0422"/></g><g><title>.HistoryCommand</title><rect fill="#FFFFFF" height="53.6074" style="stroke:#181818;stroke-width:0.7;" width="7" x="387.9179" y="230.7266"/></g><g><title>.Ui</title><rect fill="#FFFFFF" height="9.8" style="stroke:#181818;stroke-width:0.7;" width="7" x="475.4275" y="252.6303"/></g><g class="message" data-entity-1="part1" data-entity-2="part1" id="msg1"><polygon fill="#181818" points="99.8901,47.5385,106.8901,50.3385,99.8901,53.1385,102.6901,50.3385" style="stroke:#181818;stroke-width:0.7;"/><line style="stroke:#181818;stroke-width:0.7;" x1="0" x2="104.0901" y1="50.3385" y2="50.3385"/><text fill="#000000" font-family="sans-serif" font-size="9.1" lengthAdjust="spacing" textLength="94.9901" x="6.65" y="46.6546">input "history all added"</text></g><g class="message" data-entity-1="part1" data-entity-2="part3" id="msg2"><polygon fill="#181818" points="292.0083,69.4422,299.0083,72.2422,292.0083,75.0422,294.8083,72.2422" style="stroke:#181818;stroke-width:0.7;"/><line style="stroke:#181818;stroke-width:0.7;" x1="115.2901" x2="296.2083" y1="72.2422" y2="72.2422"/><text fill="#000000" font-family="sans-serif" font-size="9.1" lengthAdjust="spacing" textLength="48.557" x="183.5707" y="68.5583">parse(input)</text></g><g class="message" data-entity-1="part3" data-entity-2="part4" id="msg3"><polygon fill="#181818" points="338.9083,79.2422,345.9083,82.0422,338.9083,84.8422,341.7083,82.0422" style="stroke:#181818;stroke-width:0.7;"/><line style="stroke:#181818;stroke-width:0.7;" x1="307.4083" x2="343.1083" y1="82.0422" y2="82.0422"/></g><rect fill="#BC00D1" height="22.8348" rx="1.75" ry="1.75" style="stroke:#181818;stroke-width:0.35;" width="88.2191" x="347.3083" y="77.8422"/><text fill="#FFFFFF" font-family="sans-serif" font-size="9.8" lengthAdjust="spacing" textLength="78.4191" x="352.2083" y="93.3174">:HistoryCommand</text><g class="message" data-entity-1="part4" data-entity-2="part3" id="msg5"><polygon fill="#181818" points="315.1083,121.8807,308.1083,124.6807,315.1083,127.4807,312.3083,124.6807" style="stroke:#181818;stroke-width:0.7;"/><line style="stroke:#181818;stroke-width:0.7;stroke-dasharray:1.4,1.4;" x1="310.9083" x2="390.7179" y1="124.6807" y2="124.6807"/><text fill="#000000" font-family="sans-serif" font-size="9.1" lengthAdjust="spacing" textLength="39.9547" x="329.4358" y="120.9968">command</text></g><g class="message" data-entity-1="part3" data-entity-2="part1" id="msg6"><polygon fill="#181818" points="122.9901,143.7844,115.9901,146.5844,122.9901,149.3844,120.1901,146.5844" style="stroke:#181818;stroke-width:0.7;"/><line style="stroke:#181818;stroke-width:0.7;stroke-dasharray:1.4,1.4;" x1="118.7901" x2="303.2083" y1="146.5844" y2="146.5844"/><text fill="#000000" font-family="sans-serif" font-size="9.1" lengthAdjust="spacing" textLength="39.9547" x="189.6219" y="142.9005">command</text></g><g class="message" data-entity-1="part1" data-entity-2="part2" id="msg8"><polygon fill="#181818" points="160.6066,163.3844,167.6066,166.1844,160.6066,168.9844,163.4066,166.1844" style="stroke:#181818;stroke-width:0.7;"/><line style="stroke:#181818;stroke-width:0.7;" x1="115.2901" x2="164.8066" y1="166.1844" y2="166.1844"/></g><rect fill="#D1006C" height="22.8348" rx="1.75" ry="1.75" style="stroke:#181818;stroke-width:0.35;" width="91.5018" x="169.0066" y="161.9844"/><text fill="#FFFFFF" font-family="sans-serif" font-size="9.8" lengthAdjust="spacing" textLength="81.7018" x="173.9066" y="177.4596">:CommandContext</text><g class="message" data-entity-1="part2" data-entity-2="part1" id="msg10"><polygon fill="#181818" points="122.9901,206.0229,115.9901,208.8229,122.9901,211.6229,120.1901,208.8229" style="stroke:#181818;stroke-width:0.7;"/><line style="stroke:#181818;stroke-width:0.7;stroke-dasharray:1.4,1.4;" x1="118.7901" x2="214.0575" y1="208.8229" y2="208.8229"/><text fill="#000000" font-family="sans-serif" font-size="9.1" lengthAdjust="spacing" textLength="29.3395" x="150.3541" y="205.139">context</text></g><g class="message" data-entity-1="part1" data-entity-2="part4" id="msg11"><polygon fill="#181818" points="379.5179,227.9266,386.5179,230.7266,379.5179,233.5266,382.3179,230.7266" style="stroke:#181818;stroke-width:0.7;"/><line style="stroke:#181818;stroke-width:0.7;" x1="115.2901" x2="383.7179" y1="230.7266" y2="230.7266"/><text fill="#000000" font-family="sans-serif" font-size="9.1" lengthAdjust="spacing" textLength="67.2725" x="217.9678" y="227.0427">execute(context)</text></g><g class="message" data-entity-1="part4" data-entity-2="part5" id="msg12"><polygon fill="#181818" points="467.0275,249.8303,474.0275,252.6303,467.0275,255.4303,469.8275,252.6303" style="stroke:#181818;stroke-width:0.7;"/><line style="stroke:#181818;stroke-width:0.7;" x1="394.9179" x2="471.2275" y1="252.6303" y2="252.6303"/><text fill="#000000" font-family="sans-serif" font-size="9.1" lengthAdjust="spacing" textLength="59.661" x="405.3422" y="248.9464">printHistory(...)</text></g><g class="message" data-entity-1="part5" data-entity-2="part4" id="msg13"><polygon fill="#181818" points="402.6179,259.6303,395.6179,262.4303,402.6179,265.2303,399.8179,262.4303" style="stroke:#181818;stroke-width:0.7;"/><line style="stroke:#181818;stroke-width:0.7;stroke-dasharray:1.4,1.4;" x1="398.4179" x2="478.2275" y1="262.4303" y2="262.4303"/></g><g class="message" data-entity-1="part4" data-entity-2="part1" id="msg14"><polygon fill="#181818" points="122.9901,281.534,115.9901,284.334,122.9901,287.134,120.1901,284.334" style="stroke:#181818;stroke-width:0.7;"/><line style="stroke:#181818;stroke-width:0.7;stroke-dasharray:1.4,1.4;" x1="118.7901" x2="390.7179" y1="284.334" y2="284.334"/><text fill="#000000" font-family="sans-serif" font-size="9.1" lengthAdjust="spacing" textLength="65.7484" x="220.4798" y="280.6501">commandResult</text></g><line style="stroke:#A80036;stroke-width:1.4;" x1="385.1179" x2="397.7179" y1="287.834" y2="300.434"/><line style="stroke:#A80036;stroke-width:1.4;" x1="385.1179" x2="397.7179" y1="300.434" y2="287.834"/><g class="message" data-entity-1="part1" data-entity-2="part1" id="msg16"><polygon fill="#181818" points="7.7,301.134,0.7,303.934,7.7,306.734,4.9,303.934" style="stroke:#181818;stroke-width:0.7;"/><line style="stroke:#181818;stroke-width:0.7;stroke-dasharray:1.4,1.4;" x1="3.5" x2="111.0901" y1="303.934" y2="303.934"/></g><?plantuml-src XLDXQy8m4FsUNt7pYmxM_e0o1Ec42TDAjMnZ30dDGGEnBMcwwRzVQgCsQNMVZ7VtxjszUttWUIfgXh1HHu5-MUy58QIaKl6KbpHNC0f2AbbO286fAkG8Q0LMnAqkzdkQwtIkyA3QSYi4ORHSpbOlORJQpZ-skp1wY-BTEbuiP_6dqsnDPOKjP_k4zIpUpEExe5TUwR6EXlK4jaFd2UvsIVW9cN185auXyQQs1100pyjQmxAM2AWGG1b3DYA4feh_K8MER7O7tT9i643PF2QdZezNT9ic99NO_BLN8WQispY92zw9Ev9utG5IKyFm5lh2Do350DhCxgpybN4jKVvzeIPa_8v09G8hSeHVhZ9G6RQ2o2SGg2em-pTnmwH_MsSrRpnWMjlvyLapsuZz2pZvw-4SdEtdOGtQqgi6f4_dd20uppunwCURn-jTRwgDgeqZUQvCQkBxVgT1mecsijVtH-TAkcR85ZVk6sDL2tN78_zUcs6bP77iBVViUSwtqY6n4-GF?></g></svg>