<?plantuml 1.2026.2?><svg xmlns="http://www.w3.org/2000/svg" xmlns:xlink="http://www.w3.org/1999/xlink" contentStyleType="text/css" data-diagram-type="CLASS" height="358px" preserveAspectRatio="none" style="width:1225px;height:358px;background:#FFFFFF;" version="1.1" viewBox="0 0 1225 358" width="1225px" zoomAndPan="magnify"><defs/><g><!--class Exception--><g class="entity" data-qualified-name="Exception" data-source-line="6" id="ent0002"><rect fill="#F1F1F1" height="81.1172" rx="2.5" ry="2.5" style="stroke:#181818;stroke-width:1;" width="192.1406" x="419" y="7"/><text fill="#000000" font-family="Arial" font-size="16" lengthAdjust="spacing" textLength="70.2656" x="479.9375" y="26.4844">Exception</text><line style="stroke:#181818;stroke-width:1;" x1="420" x2="610.1406" y1="34.875" y2="34.875"/><text fill="#000000" font-family="sans-serif" font-size="14" lengthAdjust="spacing" textLength="105.8203" x="425" y="53.9824">-message: String</text><line style="stroke:#181818;stroke-width:1;" x1="420" x2="610.1406" y1="61.4961" y2="61.4961"/><text fill="#000000" font-family="sans-serif" font-size="14" lengthAdjust="spacing" textLength="180.1406" x="425" y="80.6035">+Exception(message: String)</text></g><!--class ParseException--><g class="entity" data-qualified-name="ParseException" data-source-line="11" id="ent0003"><rect fill="#F1F1F1" height="62.4961" rx="2.5" ry="2.5" style="stroke:#181818;stroke-width:1;" width="228.7129" x="400.5" y="148"/><text fill="#000000" font-family="Arial" font-size="16" lengthAdjust="spacing" textLength="112.0625" x="458.8252" y="167.4844">ParseException</text><line style="stroke:#181818;stroke-width:1;" x1="401.5" x2="628.2129" y1="175.875" y2="175.875"/><line style="stroke:#181818;stroke-width:1;" x1="401.5" x2="628.2129" y1="183.875" y2="183.875"/><text fill="#000000" font-family="sans-serif" font-size="14" lengthAdjust="spacing" textLength="216.7129" x="406.5" y="202.9824">+ParseException(message: String)</text></g><!--class ParseBlankCommandException--><g class="entity" data-qualified-name="ParseBlankCommandException" data-source-line="15" id="ent0004"><rect fill="#F1F1F1" height="62.4961" rx="2.5" ry="2.5" style="stroke:#181818;stroke-width:1;" width="231.8906" x="7" y="279.5"/><text fill="#000000" font-family="Arial" font-size="16" lengthAdjust="spacing" textLength="225.8906" x="10" y="298.9844">ParseBlankCommandException</text><line style="stroke:#181818;stroke-width:1;" x1="8" x2="237.8906" y1="307.375" y2="307.375"/><line style="stroke:#181818;stroke-width:1;" x1="8" x2="237.8906" y1="315.375" y2="315.375"/><text fill="#000000" font-family="sans-serif" font-size="14" lengthAdjust="spacing" textLength="215.1543" x="13" y="334.4824">+ParseBlankCommandException()</text></g><!--class ParseUnknownCommandException--><g class="entity" data-qualified-name="ParseUnknownCommandException" data-source-line="19" id="ent0005"><rect fill="#F1F1F1" height="62.4961" rx="2.5" ry="2.5" style="stroke:#181818;stroke-width:1;" width="351.6572" x="339" y="279.5"/><text fill="#000000" font-family="Arial" font-size="16" lengthAdjust="spacing" textLength="252.5703" x="388.5435" y="298.9844">ParseUnknownCommandException</text><line style="stroke:#181818;stroke-width:1;" x1="340" x2="689.6572" y1="307.375" y2="307.375"/><line style="stroke:#181818;stroke-width:1;" x1="340" x2="689.6572" y1="315.375" y2="315.375"/><text fill="#000000" font-family="sans-serif" font-size="14" lengthAdjust="spacing" textLength="339.6572" x="345" y="334.4824">+ParseUnknownCommandException(message: String)</text></g><!--class ParseInvalidArgumentException--><g class="entity" data-qualified-name="ParseInvalidArgumentException" data-source-line="23" id="ent0006"><rect fill="#F1F1F1" height="81.1172" rx="2.5" ry="2.5" style="stroke:#181818;stroke-width:1;" width="427.9326" x="791" y="270"/><text fill="#000000" font-family="Arial" font-size="16" lengthAdjust="spacing" textLength="227.6797" x="891.1265" y="289.4844">ParseInvalidArgumentException</text><line style="stroke:#181818;stroke-width:1;" x1="792" x2="1217.9326" y1="297.875" y2="297.875"/><text fill="#000000" font-family="sans-serif" font-size="14" lengthAdjust="spacing" textLength="94.9375" x="797" y="316.9824">-usage: String[]</text><line style="stroke:#181818;stroke-width:1;" x1="792" x2="1217.9326" y1="324.4961" y2="324.4961"/><text fill="#000000" font-family="sans-serif" font-size="14" lengthAdjust="spacing" textLength="415.9326" x="797" y="343.6035">+ParseInvalidArgumentException(message: String, usage: String[])</text></g><!--reverse link Exception to ParseException--><g class="link" data-entity-1="ent0002" data-entity-2="ent0003" data-link-type="extension" data-source-line="28" id="lnk7"><path codeLine="28" d="M515,106.03 C515,125.2 515,129.73 515,147.58" fill="none" id="Exception-backto-ParseException" style="stroke:#181818;stroke-width:1;"/><polygon fill="none" points="515,88.03,509,106.03,521,106.03,515,88.03" style="stroke:#181818;stroke-width:1;"/></g><!--reverse link ParseException to ParseBlankCommandException--><g class="link" data-entity-1="ent0003" data-entity-2="ent0004" data-link-type="extension" data-source-line="29" id="lnk8"><path codeLine="29" d="M382.3,179 C266.61,179 123,179 123,179 C123,179 123,240.45 123,279.34" fill="none" id="ParseException-backto-ParseBlankCommandException" style="stroke:#181818;stroke-width:1;"/><polygon fill="none" points="400.3,179,382.3,173,382.3,185,400.3,179" style="stroke:#181818;stroke-width:1;"/></g><!--reverse link ParseException to ParseUnknownCommandException--><g class="link" data-entity-1="ent0003" data-entity-2="ent0005" data-link-type="extension" data-source-line="30" id="lnk9"><path codeLine="30" d="M476.83,228.16 C476.83,248.97 476.83,258.25 476.83,279.1" fill="none" id="ParseException-backto-ParseUnknownCommandException" style="stroke:#181818;stroke-width:1;"/><polygon fill="none" points="476.83,210.16,470.83,228.16,482.83,228.16,476.83,210.16" style="stroke:#181818;stroke-width:1;"/></g><!--reverse link ParseException to ParseInvalidArgumentException--><g class="link" data-entity-1="ent0003" data-entity-2="ent0006" data-link-type="extension" data-source-line="31" id="lnk10"><path codeLine="31" d="M553.17,228.17 C553.17,256.2 553.17,275 553.17,275 C553.17,275 674.21,275 790.99,275" fill="none" id="ParseException-backto-ParseInvalidArgumentException" style="stroke:#181818;stroke-width:1;"/><polygon fill="none" points="553.17,210.17,547.17,228.17,559.17,228.17,553.17,210.17" style="stroke:#181818;stroke-width:1;"/></g><?plantuml-src XP4n2y8m48Nt_8guLMgbhkAYuk0cY9CuXFQeeSab9AbQrFzkAKXBR6p6k_U-ktkPSCn4bGCzkbh0N5TI469BZfeP9gdW2AxMG9LnLzLheCh1WgQBD2Ka4ynQkdjae1rNI9-4DY-X4gnb1ImRkE5OjDMuqqLUVqhUNzQ16Gi-CFRAO_wDO5XkbPGCym1hK1Bve1EMgExu7nKGZIsvnniJF5-RefA0xZV4gky-N_eZGrv_vio7j4jqerQl9F6o9TuFT9B1oCBoG2nXG-WeyW40?></g></svg>